<svg width="30" height="30" viewBox="0 0 30 30" fill="none" xmlns="http://www.w3.org/2000/svg">
<path d="M14.64 4C10.95 4 7.96 7.14 7.96 11V23.54C7.96 24.9 9.02 26 10.31 26H18.97C20.27 26 21.32 24.89 21.32 23.54V11C21.33 7.14 18.33 4 14.64 4Z" fill="#FFD24A"/>
<path d="M14.5 5C12.0142 5 10 6.99818 10 9.45455V17.4345C10 18.3 10.7141 19 11.5831 19H17.4169C18.2926 19 19 18.2936 19 17.4345V9.45455C19.0067 6.99818 16.9858 5 14.5 5Z" fill="#52E7FF"/>
<path d="M18.97 27H10.31C8.48 27 7 25.45 7 23.54V11C7 6.59 10.43 3 14.64 3C18.85 3 22.28 6.59 22.28 11V23.54C22.28 25.45 20.8 27 18.97 27ZM14.64 4C10.95 4 7.96 7.14 7.96 11V23.54C7.96 24.9 9.02 26 10.31 26H18.97C20.27 26 21.32 24.89 21.32 23.54V11C21.33 7.14 18.33 4 14.64 4Z" fill="#1F1E1C"/>
<path d="M18.08 19.3C19.4 19.3 20.47 18.1808 20.47 16.8C20.47 15.4193 19.4 14.3 18.08 14.3C16.76 14.3 15.69 15.4193 15.69 16.8C15.69 18.1808 16.76 19.3 18.08 19.3Z" fill="#008169" stroke="#1F1E1C" stroke-width="0.9773" stroke-miterlimit="10"/>
<path d="M13.97 26.5H22.18C22.6 26.5 22.94 26.14 22.94 25.7V24.76C22.94 22.53 21.2 20.7 19.06 20.7H16.89C14.87 20.7 13.21 22.4299 13.21 24.5499V25.7C13.21 26.14 13.55 26.5 13.97 26.5Z" fill="#008169" stroke="#1F1E1C" stroke-width="0.9773" stroke-miterlimit="10"/>
<path d="M14.45 5.55996C16.67 5.55996 18.47 7.44996 18.47 9.76996V17.31C18.47 18.13 17.83 18.79 17.05 18.79H11.84C11.06 18.79 10.42 18.12 10.42 17.31V9.76996C10.43 7.44996 12.23 5.55996 14.45 5.55996ZM14.45 4.57996C11.69 4.57996 9.45 6.90996 9.45 9.76996V17.31C9.45 18.67 10.52 19.77 11.84 19.77H17.05C18.37 19.77 19.44 18.67 19.44 17.31V9.76996C19.45 6.90996 17.21 4.57996 14.45 4.57996Z" fill="#1F1E1C"/>
<path d="M12.38 14.5601C13.1753 14.5601 13.82 13.8885 13.82 13.0601C13.82 12.2316 13.1753 11.5601 12.38 11.5601C11.5847 11.5601 10.94 12.2316 10.94 13.0601C10.94 13.8885 11.5847 14.5601 12.38 14.5601Z" fill="#FFD24A" stroke="#1F1E1C" stroke-miterlimit="10"/>
<path d="M15.31 18.8201V18.1301C15.31 16.8501 14.31 15.8101 13.1 15.8101H11.78C10.5 15.8101 9.45 16.9101 9.45 18.2501V18.8201C9.45 19.0901 9.66 19.3001 9.91 19.3001H14.85C15.11 19.3001 15.31 19.0801 15.31 18.8201Z" fill="#008169" stroke="#1F1E1C" stroke-miterlimit="10"/>
<path d="M18.08 19.3C19.4 19.3 20.47 18.1808 20.47 16.8C20.47 15.4193 19.4 14.3 18.08 14.3C16.76 14.3 15.69 15.4193 15.69 16.8C15.69 18.1808 16.76 19.3 18.08 19.3Z" fill="#FFD24A" stroke="#1F1E1C" stroke-miterlimit="10"/>
<path d="M13.97 26.5H22.18C22.6 26.5 22.94 26.14 22.94 25.7V24.76C22.94 22.53 21.2 20.7 19.06 20.7H16.89C14.87 20.7 13.21 22.4299 13.21 24.5499V25.7C13.21 26.14 13.55 26.5 13.97 26.5Z" fill="#008169" stroke="#1F1E1C" stroke-miterlimit="10"/>
</svg>
