<svg width="30" height="30" viewBox="0 0 30 30" fill="none" xmlns="http://www.w3.org/2000/svg">
<path d="M14.093 13.7638H8.84154V20.8999H14.093V13.7638Z" fill="#008169"/>
<path fill-rule="evenodd" clip-rule="evenodd" d="M17.2723 3.59232C17.2723 3.26519 17.0071 3 16.68 3C16.3528 3 16.0876 3.26519 16.0876 3.59232V6.83003H9.43385H9.43371C6.86159 6.83003 4.77457 8.97112 4.77457 11.5661V20.3075H5.95921V11.5661C5.95921 9.60459 7.53644 8.01467 9.43371 8.01467H9.43385C9.44862 8.01467 9.46338 8.01477 9.47812 8.01496C9.50907 8.01536 9.53993 8.01619 9.57069 8.01744C11.4063 8.09173 12.9082 9.65199 12.9082 11.5661V21.7953H5.36689V21.7954H3.59232C3.26519 21.7954 3 22.0606 3 22.3877C3 22.7148 3.26519 22.98 3.59232 22.98H7.14154L7.1466 22.98H12.9083H13.5005H13.5007H14.0928H16.0876V26.4076C16.0876 26.7347 16.3528 26.9999 16.68 26.9999C17.0071 26.9999 17.2723 26.7347 17.2723 26.4076V22.98H18.274H24.8467C26.0411 22.98 27 22.0085 27 20.8111V11.5661C27 8.97112 24.913 6.83003 22.3409 6.83003H18.6191V8.01467H22.3409C24.2381 8.01467 25.8154 9.60459 25.8154 11.5661V20.8111C25.8154 21.3636 25.3776 21.7953 24.8467 21.7953H18.274H14.093V11.5661C14.093 10.1593 13.4796 8.88585 12.5081 8.01467H16.0876V11.1369C16.0876 11.464 16.3528 11.7292 16.68 11.7292C17.0071 11.7292 17.2723 11.464 17.2723 11.1369V3.59232Z" fill="#1F1E1C"/>
<path d="M20.1232 3H16.0876V5.65393H20.1232V3Z" fill="#008169"/>
<ellipse cx="23" cy="23" rx="4" ry="4" fill="#FF3226"/>
</svg>
