<svg width="32" height="32" viewBox="0 0 32 32" fill="none" xmlns="http://www.w3.org/2000/svg">
<defs>
<linearGradient id="paint0_linear_2344_60435" x1="15.9951" y1="0.00511831" x2="15.9951" y2="31.9945" gradientUnits="userSpaceOnUse">
<stop stop-color="#FFD24A"/>
<stop offset="0.5535" stop-color="#FFD24A"/>
<stop offset="1" stop-color="#FFB637"/>
</linearGradient>
<linearGradient id="paint1_linear_2344_60435" x1="15.9951" y1="28.3867" x2="15.9951" y2="-2.04988" gradientUnits="userSpaceOnUse">
<stop stop-color="#FADF4C"/>
<stop offset="0.1416" stop-color="#F7D649"/>
<stop offset="0.6883" stop-color="#EEB940"/>
<stop offset="1" stop-color="#EAAE3D"/>
</linearGradient>
<radialGradient id="paint2_radial_2344_60435" cx="0" cy="0" r="1" gradientUnits="userSpaceOnUse" gradientTransform="translate(16.1153 6.25863) scale(22.7376 22.7301)">
<stop offset="0.3085" stop-color="#FFD24A"/>
<stop offset="1" stop-color="#FFD24A"/>
</radialGradient>
<linearGradient id="paint3_linear_2344_60435" x1="16.8361" y1="8.45652" x2="16.8361" y2="22.8556" gradientUnits="userSpaceOnUse">
<stop stop-color="#FFD24A"/>
<stop offset="0.5535" stop-color="#FFD24A"/>
<stop offset="1" stop-color="#FFB637"/>
</linearGradient>
<linearGradient id="paint4_linear_2344_60435" x1="16.704" y1="12.6677" x2="16.704" y2="14.8003" gradientUnits="userSpaceOnUse">
<stop stop-color="#F8D363"/>
<stop offset="1" stop-color="white"/>
</linearGradient>
</defs>
<path d="M16 31.9894C24.8366 31.9894 32 24.8283 32 15.9947C32 7.16108 24.8366 0 16 0C7.16344 0 0 7.16108 0 15.9947C0 24.8283 7.16344 31.9894 16 31.9894Z" fill="url(#paint0_linear_2344_60435)"/>
<path opacity="0.3" d="M16 31.5095C7.24267 31.5095 0.128 24.4825 0 15.76C0 15.8453 0 15.92 0 16.0053C0 24.8344 7.168 32 16 32C24.832 32 32 24.8344 32 16.0053C32 15.92 32 15.8453 32 15.76C31.8613 24.4825 24.7467 31.5095 16 31.5095Z" fill="#FCF171"/>
<path d="M16 0.604901C24.736 0.604901 31.84 7.59992 32 16.301C32 16.2051 32 16.0984 32 16.0025C32 7.1734 24.832 0.00776768 16 0.00776768C7.168 0.00776768 0 7.1734 0 16.0025C0 16.0984 0 16.2051 0 16.301C0.16 7.59992 7.264 0.604901 16 0.604901Z" fill="#FFEA60"/>
<path d="M16 28.3852C22.8454 28.3852 28.3947 22.8377 28.3947 15.9946C28.3947 9.15148 22.8454 3.60404 16 3.60404C9.15462 3.60404 3.60535 9.15148 3.60535 15.9946C3.60535 22.8377 9.15462 28.3852 16 28.3852Z" fill="url(#paint1_linear_2344_60435)"/>
<path d="M16.0001 27.7777C22.5097 27.7777 27.7868 22.5023 27.7868 15.9949C27.7868 9.48744 22.5097 4.21213 16.0001 4.21213C9.4905 4.21213 4.21342 9.48744 4.21342 15.9949C4.21342 22.5023 9.4905 27.7777 16.0001 27.7777Z" fill="#E39D37"/>
<path d="M16 27.2975C22.2445 27.2975 27.3067 22.237 27.3067 15.9946C27.3067 9.75216 22.2445 4.69168 16 4.69168C9.75552 4.69168 4.69336 9.75216 4.69336 15.9946C4.69336 22.237 9.75552 27.2975 16 27.2975Z" fill="url(#paint2_radial_2344_60435)"/>
<path opacity="0.25" d="M16 26.4659C9.85602 26.4659 4.85336 21.8061 4.69336 15.7068C4.69336 15.8028 4.69336 15.9094 4.69336 16.0054C4.69336 22.254 9.76002 27.3083 16 27.3083C22.24 27.3083 27.3067 22.2433 27.3067 16.0054C27.3067 15.9094 27.3067 15.8028 27.3067 15.7068C27.136 21.8061 22.144 26.4659 16 26.4659Z" fill="#FCF171"/>
<path opacity="0.15" d="M14.0693 21.8915C13.7813 22.1687 13.44 22.318 13.0346 22.318C12.64 22.318 12.288 22.1794 12 21.8915C11.712 21.6142 11.5626 21.2624 11.5626 20.8465V9.38363C11.5626 8.92511 11.7226 8.53058 12.0533 8.20002C12.384 7.86946 12.7786 7.70952 13.2373 7.70952H16.3626C20.1813 7.70952 22.0906 9.23434 22.0906 12.2947C22.0906 13.361 21.8346 14.2673 21.3226 15.0138C20.8106 15.7602 20.1386 16.2933 19.3066 16.6346C18.4746 16.9651 17.5253 17.1357 16.448 17.1357H14.6986C14.5706 17.1357 14.5066 17.1997 14.5066 17.3277V20.8572C14.5066 21.2624 14.3573 21.6142 14.0693 21.8915ZM14.5066 14.6299C14.5066 14.7578 14.5706 14.8218 14.6986 14.8218H16.256C18.2293 14.8218 19.2213 13.9794 19.2213 12.2947C19.2213 11.4736 18.9653 10.8871 18.4746 10.5459C17.9733 10.194 17.2053 10.0234 16.16 10.0234H14.6986C14.5706 10.0234 14.5066 10.0874 14.5066 10.2154V14.6299Z" fill="#E39D37"/>
<path d="M14.0693 22.3394C13.7813 22.6167 13.44 22.766 13.0346 22.766C12.64 22.766 12.288 22.6273 12 22.3394C11.712 22.0622 11.5626 21.7103 11.5626 21.2944V9.83156C11.5626 9.37304 11.7226 8.97851 12.0533 8.64795C12.384 8.31739 12.7786 8.15746 13.2373 8.15746H16.3626C20.1813 8.15746 22.0906 9.68229 22.0906 12.7426C22.0906 13.8089 21.8346 14.7153 21.3226 15.4617C20.8106 16.2081 20.1386 16.7413 19.3066 17.0825C18.4746 17.4131 17.5253 17.5837 16.448 17.5837H14.6986C14.5706 17.5837 14.5066 17.6476 14.5066 17.7756V21.3051C14.5066 21.7103 14.3573 22.0515 14.0693 22.3394ZM14.5066 15.0778C14.5066 15.2058 14.5706 15.2698 14.6986 15.2698H16.256C18.2293 15.2698 19.2213 14.4274 19.2213 12.7426C19.2213 11.9215 18.9653 11.3351 18.4746 10.9938C17.9733 10.642 17.2053 10.4714 16.16 10.4714H14.6986C14.5706 10.4714 14.5066 10.5353 14.5066 10.6633V15.0778Z" fill="#FFEA60"/>
<path opacity="0.1" d="M14.0481 24.2376C13.7387 24.5361 13.3761 24.6854 12.9601 24.6854C12.5334 24.6854 12.1707 24.5361 11.8721 24.2376C11.5627 23.939 11.4134 23.5765 11.4134 23.1393V11.0046C11.4134 10.5141 11.5841 10.0982 11.9361 9.74635C12.2774 9.39446 12.7041 9.22386 13.1948 9.22386H16.5014C20.5441 9.22386 22.5601 10.8447 22.5601 14.0756C22.5601 15.2059 22.2827 16.1656 21.7387 16.9546C21.1947 17.7437 20.4801 18.3089 19.6054 18.6714C18.7307 19.0233 17.7174 19.2046 16.5761 19.2046H14.7201C14.5814 19.2046 14.5174 19.2685 14.5174 19.4072V23.1393C14.5067 23.5765 14.3467 23.939 14.0481 24.2376ZM14.5067 16.5494C14.5067 16.6881 14.5708 16.752 14.7094 16.752H16.3627C18.4534 16.752 19.5094 15.8563 19.5094 14.0756C19.5094 13.2012 19.2428 12.5827 18.7094 12.2202C18.1761 11.8577 17.3654 11.6657 16.2561 11.6657H14.7094C14.5708 11.6657 14.5067 11.7297 14.5067 11.8683V16.5494Z" fill="#FCF171"/>
<path opacity="0.6" d="M14.1972 23.5018C13.8986 23.7897 13.5466 23.939 13.1413 23.939C12.7359 23.939 12.3733 23.7897 12.0853 23.5018C11.7866 23.2139 11.6373 22.8513 11.6373 22.4355V10.6421C11.6373 10.1622 11.8079 9.75702 12.1386 9.42646C12.4799 9.08524 12.8853 8.92529 13.3546 8.92529H16.5652C20.4906 8.92529 22.4533 10.5034 22.4533 13.6384C22.4533 14.7367 22.1866 15.6644 21.6639 16.4321C21.1412 17.1999 20.4479 17.7544 19.5946 18.0956C18.7413 18.4368 17.7599 18.6074 16.6506 18.6074H14.8479C14.7199 18.6074 14.6453 18.6714 14.6453 18.81V22.4355C14.6453 22.8513 14.4959 23.2139 14.1972 23.5018ZM14.6453 16.0269C14.6453 16.1549 14.7092 16.2295 14.8479 16.2295H16.4586C18.4959 16.2295 19.5093 15.3658 19.5093 13.6277C19.5093 12.7853 19.2532 12.1776 18.7306 11.8257C18.2186 11.4631 17.4186 11.2925 16.3519 11.2925H14.8479C14.7199 11.2925 14.6453 11.3565 14.6453 11.4951V16.0269Z" fill="#E29C37" stroke="#E29C37" stroke-width="0.375" stroke-miterlimit="10"/>
<path d="M14.0693 22.8722C13.7813 23.1495 13.44 23.2988 13.0346 23.2988C12.64 23.2988 12.288 23.1601 12 22.8722C11.712 22.595 11.5626 22.2431 11.5626 21.8272V10.3644C11.5626 9.90585 11.7226 9.51131 12.0533 9.18076C12.384 8.8502 12.7786 8.69026 13.2373 8.69026H16.3626C20.1813 8.69026 22.0906 10.2151 22.0906 13.2754C22.0906 14.3417 21.8346 15.2481 21.3226 15.9945C20.8106 16.7409 20.1386 17.2741 19.3066 17.6153C18.4746 17.9459 17.5253 18.1165 16.448 18.1165H14.6986C14.5706 18.1165 14.5066 18.1804 14.5066 18.3084V21.8379C14.5066 22.2431 14.3573 22.5843 14.0693 22.8722ZM14.5066 15.6106C14.5066 15.7386 14.5706 15.8026 14.6986 15.8026H16.256C18.2293 15.8026 19.2213 14.9602 19.2213 13.2754C19.2213 12.4544 18.9653 11.8679 18.4746 11.5266C17.9733 11.1748 17.2053 11.0042 16.16 11.0042H14.6986C14.5706 11.0042 14.5066 11.0681 14.5066 11.1961V15.6106Z" fill="url(#paint3_linear_2344_60435)"/>
<path d="M16.3733 8.69026H13.248C12.7893 8.69026 12.3946 8.8502 12.064 9.18076C11.7333 9.51131 11.5733 9.90585 11.5733 10.3644V13.606C12.5226 13.6913 13.4933 13.7659 14.5066 13.7979V11.1961C14.5066 11.0681 14.5706 11.0042 14.6986 11.0042H16.16C17.1946 11.0042 17.9733 11.1748 18.4746 11.5266C18.976 11.8785 19.2213 12.4544 19.2213 13.2754C19.2213 13.446 19.2 13.5953 19.1893 13.7446C20.192 13.6913 21.152 13.5953 22.08 13.4887C22.08 13.414 22.0906 13.3501 22.0906 13.2754C22.1013 10.2258 20.192 8.69026 16.3733 8.69026Z" fill="url(#paint4_linear_2344_60435)"/>
</svg>
