<svg width="30" height="30" viewBox="0 0 30 30" fill="none" xmlns="http://www.w3.org/2000/svg">
<path d="M19.84 26.53C21.32 26.53 22.53 25.33 22.53 23.84V11C22.53 6.85997 19.14 3.46997 15 3.46997C10.86 3.46997 7.47 6.85997 7.47 11V23.84C7.47 25.32 8.67 26.53 10.16 26.53H19.84Z" fill="#008169"/>
<path d="M19.84 27H10.16C8.42 27 7 25.58 7 23.84V11C7 6.59 10.59 3 15 3C19.41 3 23 6.59 23 11V23.84C23 25.58 21.58 27 19.84 27ZM15 3.95C11.11 3.95 7.95 7.11 7.95 11V23.84C7.95 25.06 8.94 26.05 10.16 26.05H19.84C21.06 26.05 22.05 25.06 22.05 23.84V11C22.05 7.11 18.89 3.95 15 3.95Z" fill="#1F1E1C"/>
<path d="M15 18.53C19.16 18.53 22.53 15.16 22.53 11C22.53 6.85997 19.14 3.46997 15 3.46997C10.86 3.46997 7.47 6.85997 7.47 11V18.5L15 18.53Z" fill="#52E7FF"/>
<path d="M15 19L7 18.97V11C7 6.59 10.59 3 15 3C19.41 3 23 6.59 23 11C23 15.41 19.41 19 15 19ZM7.95 18.03L15 18.05C18.89 18.05 22.05 14.89 22.05 11C22.05 7.11 18.89 3.95 15 3.95C11.11 3.95 7.95 7.11 7.95 11V18.03Z" fill="#1F1E1C"/>
<path d="M16.75 3.67997C16.19 3.54997 15.6 3.46997 15 3.46997C10.86 3.46997 7.47 6.85997 7.47 11V23.84C7.47 25.32 8.67 26.53 10.16 26.53H10.97V11C10.97 7.45997 13.44 4.47997 16.75 3.67997Z" fill="#FFD24A"/>
<path d="M10.97 27H10.16C8.42 27 7 25.58 7 23.84V11C7 6.59 10.59 3 15 3C15.62 3 16.25 3.07 16.86 3.22C17.07 3.27 17.22 3.46 17.22 3.68C17.22 3.9 17.07 4.09 16.86 4.14C13.72 4.9 11.44 7.78 11.44 11V26.53C11.44 26.79 11.23 27 10.97 27ZM14.72 3.95C10.96 4.1 7.95 7.2 7.95 11V23.84C7.95 25.06 8.94 26.05 10.16 26.05H10.49V11C10.49 9.2 11.11 7.43 12.24 6.02C12.93 5.17 13.78 4.46 14.72 3.95Z" fill="#1F1E1C"/>
</svg>
