<svg width="32" height="27" viewBox="0 0 32 27" fill="none" xmlns="http://www.w3.org/2000/svg">
<path d="M19.629 3.56021C19.1464 3.85957 18.7905 4.32298 18.6275 4.8642C18.2427 4.5128 17.7534 4.29476 17.2336 4.243C16.7138 4.19125 16.1917 4.30861 15.7462 4.57734C15.2633 4.87636 14.9072 5.3399 14.7447 5.88133C14.3602 5.5295 13.8711 5.31104 13.3513 5.25899C12.8315 5.20694 12.3093 5.32414 11.8636 5.59285C11.4048 5.87817 11.0598 6.31196 10.8866 6.8211L7.79382 2.32739C7.44493 1.82119 6.9143 1.46603 6.31089 1.33484C5.70747 1.20364 5.07706 1.30638 4.54908 1.62194C4.28015 1.78989 4.04826 2.00997 3.86727 2.26904C3.68628 2.52811 3.55989 2.82085 3.49566 3.12981C3.43142 3.43876 3.43065 3.75759 3.49339 4.06725C3.55613 4.37691 3.6811 4.67106 3.86083 4.93215L10.2067 14.1524C9.91607 14.0771 9.61385 14.0569 9.31601 14.0929C8.85103 14.1482 8.41352 14.3392 8.05883 14.6416C7.70415 14.944 7.44825 15.3443 7.32351 15.7918C7.19878 16.2392 7.21083 16.7138 7.35813 17.1553C7.50542 17.5969 7.78135 17.9856 8.15099 18.2722C8.15099 18.2722 12.141 21.3703 13.7097 22.5876C13.9439 22.7691 14.1796 22.961 14.4067 23.1445L14.6697 23.3617C16.0839 24.4947 17.8218 25.156 19.6347 25.2511C21.4878 25.3476 23.3195 24.8374 24.8479 23.7991L25.6438 23.2615C27.5081 21.9997 28.7891 20.0541 29.2054 17.8519C29.6217 15.6496 29.1393 13.3707 27.8642 11.5154L22.8748 4.2692C22.5272 3.76117 21.9966 3.40433 21.3925 3.27239C20.7885 3.14044 20.1572 3.24348 19.629 3.56021Z" fill="#F7F6F2"/>
<path d="M19.629 3.56021C19.1464 3.85957 18.7905 4.32298 18.6275 4.8642C18.2427 4.5128 17.7534 4.29476 17.2336 4.243C16.7138 4.19125 16.1917 4.30861 15.7462 4.57734C15.2633 4.87636 14.9072 5.3399 14.7447 5.88133C14.3602 5.5295 13.8711 5.31104 13.3513 5.25899C12.8315 5.20694 12.3093 5.32414 11.8636 5.59285C11.4048 5.87817 11.0598 6.31196 10.8866 6.8211L7.79382 2.32739C7.44493 1.82119 6.9143 1.46603 6.31089 1.33484C5.70747 1.20364 5.07706 1.30638 4.54908 1.62194C4.28015 1.78989 4.04826 2.00997 3.86727 2.26904C3.68628 2.52811 3.55989 2.82085 3.49566 3.12981C3.43142 3.43876 3.43065 3.75759 3.49339 4.06725C3.55613 4.37691 3.6811 4.67106 3.86083 4.93215L10.2067 14.1524C9.91607 14.0771 9.61385 14.0569 9.31601 14.0929C8.85103 14.1482 8.41352 14.3392 8.05883 14.6416C7.70415 14.944 7.44825 15.3443 7.32351 15.7918C7.19878 16.2392 7.21083 16.7138 7.35813 17.1553C7.50542 17.5969 7.78135 17.9856 8.15099 18.2722C8.15099 18.2722 12.141 21.3703 13.7097 22.5876C13.9439 22.7691 14.1796 22.961 14.4067 23.1445L14.6697 23.3617C16.0839 24.4947 17.8218 25.156 19.6347 25.2511C21.4878 25.3476 23.3195 24.8374 24.8479 23.7991L25.6438 23.2615C27.5081 21.9997 28.7891 20.0541 29.2054 17.8519C29.6217 15.6496 29.1393 13.3707 27.8642 11.5154L22.8748 4.2692C22.5272 3.76117 21.9966 3.40433 21.3925 3.27239C20.7885 3.14044 20.1572 3.24348 19.629 3.56021ZM27.0825 12.0407C28.2155 13.6898 28.644 15.7152 28.274 17.6725C27.904 19.6297 26.7658 21.359 25.109 22.4807L24.3132 23.0183C22.9645 23.9213 21.3582 24.3709 19.7299 24.3011C18.1015 24.2313 16.5369 23.6458 15.2656 22.6306L15.0043 22.4138C14.7729 22.226 14.5329 22.03 14.2912 21.8437L8.73245 17.5284C8.43535 17.2975 8.24241 16.9595 8.196 16.5885C8.14959 16.2175 8.25351 15.8438 8.48493 15.5496C8.57436 15.4353 8.68154 15.3357 8.80248 15.2548C9.05163 15.0867 9.3484 15.0016 9.65003 15.0117C9.95166 15.0217 10.2426 15.1265 10.4809 15.3109L11.6584 16.2299C11.7464 16.2981 11.8557 16.3336 11.9671 16.3302C12.0786 16.3268 12.1852 16.2847 12.2683 16.2113L12.2828 16.1973C12.3627 16.1203 12.4125 16.0178 12.4234 15.9077C12.4343 15.7976 12.4056 15.6872 12.3424 15.5958L4.63261 4.39668C4.52445 4.24009 4.44925 4.06355 4.41149 3.87765C4.37374 3.69175 4.37422 3.50032 4.41291 3.31485C4.4516 3.12938 4.52769 2.9537 4.63663 2.79835C4.74557 2.643 4.8851 2.51118 5.04686 2.4108C5.36689 2.22156 5.74834 2.16156 6.11255 2.24318C6.47675 2.3248 6.79595 2.54181 7.00431 2.84947L11.1678 8.89828L13.7441 12.6398C13.8215 12.7226 13.9262 12.7752 14.0391 12.788C14.1521 12.8009 14.2658 12.7731 14.3596 12.7097C14.4534 12.6463 14.5211 12.5516 14.5502 12.4427C14.5794 12.3339 14.5682 12.2181 14.5186 12.1165L11.9586 8.36974C11.8506 8.21293 11.7756 8.03625 11.738 7.85025C11.7004 7.66426 11.7009 7.47277 11.7396 7.28723C11.7783 7.1017 11.8544 6.92593 11.9632 6.77044C12.0721 6.61494 12.2115 6.48292 12.3731 6.38225C12.6933 6.19325 13.0748 6.13356 13.439 6.21548C13.8031 6.29741 14.1222 6.51469 14.3303 6.82253L15.0591 7.88108L17.4114 11.2973C17.4412 11.3583 17.4839 11.4123 17.5365 11.4555C17.5892 11.4987 17.6506 11.5302 17.7166 11.5478C17.7825 11.5654 17.8515 11.5687 17.9188 11.5574C17.9861 11.5462 18.05 11.5206 18.1064 11.4826C18.1627 11.4445 18.2101 11.3948 18.2452 11.3369C18.2803 11.279 18.3024 11.2142 18.31 11.1469C18.3175 11.0797 18.3104 11.0116 18.2889 10.9472C18.2675 10.8829 18.2324 10.8238 18.1859 10.7741L15.8337 7.35785C15.7258 7.20105 15.6508 7.02443 15.6132 6.83851C15.5756 6.65259 15.576 6.46117 15.6145 6.27568C15.6531 6.09018 15.7289 5.9144 15.8375 5.75881C15.9461 5.60322 16.0852 5.471 16.2466 5.37004C16.5671 5.181 16.9489 5.12131 17.3133 5.20328C17.6777 5.28525 17.997 5.50263 18.2054 5.81064L18.9342 6.86918L20.9139 9.75459C20.9913 9.83741 21.096 9.89002 21.209 9.90285C21.3219 9.91568 21.4357 9.88789 21.5295 9.82452C21.6233 9.76116 21.6909 9.66643 21.7201 9.55757C21.7492 9.44871 21.738 9.33295 21.6884 9.23136L19.7088 6.34595C19.6007 6.18938 19.5255 6.0129 19.4878 5.82707C19.45 5.64125 19.4504 5.44989 19.4889 5.26446C19.5274 5.07903 19.6033 4.90334 19.712 4.74789C19.8206 4.59244 19.9599 4.46043 20.1214 4.35977C20.4413 4.17012 20.8229 4.10989 21.1872 4.19154C21.5515 4.27319 21.8707 4.49046 22.0788 4.79843L27.0825 12.0407Z" fill="#1F1E1C"/>
</svg>
