<svg width="379" height="106" viewBox="0 0 379 106" fill="none" xmlns="http://www.w3.org/2000/svg">
<defs>
<linearGradient id="paint0_linear_8035_55748" x1="79.8174" y1="31.5485" x2="48.1506" y2="59.6968" gradientUnits="userSpaceOnUse">
<stop stop-color="#00A0FF"/>
<stop offset="0.00657445" stop-color="#00A1FF"/>
<stop offset="0.2601" stop-color="#00BEFF"/>
<stop offset="0.5122" stop-color="#00D2FF"/>
<stop offset="0.7604" stop-color="#00DFFF"/>
<stop offset="1" stop-color="#00E3FF"/>
</linearGradient>
<linearGradient id="paint1_linear_8035_55748" x1="100.143" y1="53.0026" x2="59.2765" y2="53.0026" gradientUnits="userSpaceOnUse">
<stop stop-color="#FFE000"/>
<stop offset="0.4087" stop-color="#FFBD00"/>
<stop offset="0.7754" stop-color="#FFA500"/>
<stop offset="1" stop-color="#FF9C00"/>
</linearGradient>
<linearGradient id="paint2_linear_8035_55748" x1="84.93" y1="57.3626" x2="41.9874" y2="95.5338" gradientUnits="userSpaceOnUse">
<stop stop-color="#FF3A44"/>
<stop offset="1" stop-color="#C31162"/>
</linearGradient>
<linearGradient id="paint3_linear_8035_55748" x1="55.3243" y1="15.3348" x2="74.4999" y2="32.3798" gradientUnits="userSpaceOnUse">
<stop stop-color="#32A071"/>
<stop offset="0.0685" stop-color="#2DA771"/>
<stop offset="0.4762" stop-color="#15CF74"/>
<stop offset="0.8009" stop-color="#06E775"/>
<stop offset="1" stop-color="#00F076"/>
</linearGradient>
<linearGradient id="paint4_linear_8035_55748" x1="100.142" y1="53.0023" x2="59.2774" y2="53.0023" gradientUnits="userSpaceOnUse">
<stop stop-color="#CCB300"/>
<stop offset="0.4087" stop-color="#CC9700"/>
<stop offset="0.7754" stop-color="#CC8400"/>
<stop offset="1" stop-color="#CC7D00"/>
</linearGradient>
<linearGradient id="paint5_linear_8035_55748" x1="84.9302" y1="57.3626" x2="41.9876" y2="95.5338" gradientUnits="userSpaceOnUse">
<stop stop-color="#CC2E36"/>
<stop offset="1" stop-color="#9C0E4E"/>
</linearGradient>
<linearGradient id="paint6_linear_8035_55748" x1="79.8174" y1="31.5484" x2="48.1505" y2="59.6967" gradientUnits="userSpaceOnUse">
<stop stop-color="#008DE0"/>
<stop offset="0.00657445" stop-color="#008DE0"/>
<stop offset="0.2601" stop-color="#00A7E0"/>
<stop offset="0.5122" stop-color="#00B8E0"/>
<stop offset="0.7604" stop-color="#00C4E0"/>
<stop offset="1" stop-color="#00C7E0"/>
</linearGradient>
<linearGradient id="paint7_linear_8035_55748" x1="84.9302" y1="57.3621" x2="41.9865" y2="95.5331" gradientUnits="userSpaceOnUse">
<stop stop-color="#E0333C"/>
<stop offset="1" stop-color="#AB0F56"/>
</linearGradient>
<linearGradient id="paint8_linear_8035_55748" x1="100.143" y1="53.0026" x2="59.2766" y2="53.0026" gradientUnits="userSpaceOnUse">
<stop stop-color="#E0C500"/>
<stop offset="0.4087" stop-color="#E0A600"/>
<stop offset="0.7754" stop-color="#E09100"/>
<stop offset="1" stop-color="#E08900"/>
</linearGradient>
<linearGradient id="paint9_linear_8035_55748" x1="100.143" y1="53.0026" x2="59.2766" y2="53.0026" gradientUnits="userSpaceOnUse">
<stop stop-color="#FFE840"/>
<stop offset="0.4087" stop-color="#FFCE40"/>
<stop offset="0.7754" stop-color="#FFBC40"/>
<stop offset="1" stop-color="#FFB540"/>
</linearGradient>
<linearGradient id="paint10_linear_8035_55748" x1="79.8174" y1="31.5484" x2="48.1506" y2="59.6967" gradientUnits="userSpaceOnUse">
<stop stop-color="#40B8FF"/>
<stop offset="0.00657445" stop-color="#40B9FF"/>
<stop offset="0.2601" stop-color="#40CEFF"/>
<stop offset="0.5122" stop-color="#40DDFF"/>
<stop offset="0.7604" stop-color="#40E7FF"/>
<stop offset="1" stop-color="#40EAFF"/>
</linearGradient>
<linearGradient id="paint11_linear_8035_55748" x1="55.3244" y1="15.3347" x2="74.5" y2="32.3797" gradientUnits="userSpaceOnUse">
<stop stop-color="#65B895"/>
<stop offset="0.0685" stop-color="#62BD95"/>
<stop offset="0.4762" stop-color="#50DB97"/>
<stop offset="0.8009" stop-color="#44ED98"/>
<stop offset="1" stop-color="#40F498"/>
</linearGradient>
</defs>
<path d="M262.556 91H51.4444C46.8 91 43 86.725 43 81.5V24.5C43 19.275 46.8 15 51.4444 15H262.556C267.2 15 271 19.275 271 24.5V81.5C271 86.725 267.2 91 262.556 91Z" fill="black"/>
<path d="M262.556 15H51.4444C46.8 15 43 19.275 43 24.5V81.5C43 86.725 46.8 91 51.4444 91H262.556C267.2 91 271 86.725 271 81.5V24.5C271 19.275 267.2 15 262.556 15ZM262.556 16.52C266.467 16.52 269.649 20.1004 269.649 24.5V81.5C269.649 85.9004 266.467 89.4808 262.556 89.4808H51.4444C47.5337 89.4808 44.3511 85.9004 44.3511 81.5V24.5C44.3511 20.1004 47.5337 16.52 51.4444 16.52H262.556Z" fill="#A6A6A6"/>
<path d="M123.084 34.4625C123.084 36.0543 122.665 37.322 121.826 38.2676C120.873 39.3921 119.631 39.9547 118.103 39.9547C116.641 39.9547 115.397 39.3847 114.375 38.2431C113.35 37.1024 112.839 35.6878 112.839 34.0001C112.839 32.3115 113.35 30.8977 114.375 29.7562C115.397 28.6155 116.641 28.0447 118.103 28.0447C118.829 28.0447 119.524 28.2043 120.183 28.5227C120.843 28.8419 121.372 29.2656 121.768 29.7963L120.877 30.7989C120.207 29.8972 119.283 29.4467 118.103 29.4467C117.037 29.4467 116.114 29.8683 115.336 30.7121C114.557 31.5568 114.168 32.6522 114.168 34.0001C114.168 35.3479 114.557 36.4433 115.336 37.288C116.114 38.1318 117.037 38.5534 118.103 38.5534C119.235 38.5534 120.178 38.1295 120.934 37.2806C121.424 36.7275 121.707 35.9588 121.783 34.9715H118.103V33.6022H123.014C123.061 33.8999 123.084 34.1857 123.084 34.4625" fill="white"/>
<path d="M123.084 34.4624H122.915C122.914 36.018 122.51 37.2262 121.707 38.1332L121.705 38.1348L121.704 38.1363C120.781 39.2219 119.595 39.7623 118.103 39.7646C116.68 39.7623 115.488 39.2161 114.493 38.1087C113.501 36.9991 113.01 35.6446 113.008 34C113.01 32.3546 113.501 31.0008 114.493 29.892C115.488 28.7839 116.68 28.2369 118.103 28.2346C118.807 28.2346 119.477 28.3891 120.117 28.6971C120.757 29.0074 121.262 29.414 121.639 29.9188L121.768 29.7962L121.649 29.6619L120.758 30.6653L120.877 30.7989L121.007 30.6773C120.305 29.7309 119.32 29.2538 118.103 29.2566C116.997 29.2551 116.024 29.6997 115.219 30.5756C114.406 31.4544 113.998 32.6113 113.999 34C113.998 35.3887 114.406 36.5456 115.219 37.4244C116.024 38.3003 116.997 38.7449 118.103 38.7433C119.272 38.7456 120.269 38.2995 121.053 37.4149C121.577 36.824 121.874 36.0054 121.952 34.9878L121.967 34.7815H118.272V33.7921H123.014V33.6021L122.847 33.6356C122.894 33.9236 122.915 34.1974 122.915 34.4624H123.084H123.253C123.253 34.1736 123.229 33.8769 123.18 33.5681L123.155 33.4121H117.934V34.9715V35.1615H121.783V34.9715L121.615 34.9551C121.54 35.9112 121.27 36.6311 120.814 37.1462C120.088 37.9596 119.198 38.3611 118.103 38.3633C117.076 38.3618 116.205 37.964 115.453 37.1513C114.709 36.3415 114.339 35.3078 114.337 34C114.339 32.6922 114.709 31.6584 115.453 30.8486C116.205 30.036 117.076 29.6382 118.103 29.6366C119.245 29.6397 120.108 30.0641 120.748 30.9214L120.867 31.0803L121.888 29.9306L121.997 29.8074L121.897 29.6744C121.482 29.1179 120.93 28.6762 120.25 28.3482C119.569 28.0194 118.851 27.8546 118.103 27.8546C116.602 27.8531 115.306 28.4469 114.255 29.6218C113.2 30.7945 112.669 32.2685 112.67 34C112.669 35.7307 113.2 37.2055 114.256 38.3789C115.306 39.5531 116.602 40.1461 118.103 40.1446C119.667 40.1461 120.964 39.5619 121.948 38.3989L121.826 38.2676L121.945 38.4019C122.82 37.4185 123.254 36.09 123.253 34.4624H123.084Z" fill="white"/>
<path d="M130.869 29.7005H126.254V33.3151H130.416V34.685H126.254V38.2995H130.869V39.7H124.953V28.3H130.869V29.7005Z" fill="white"/>
<path d="M130.869 29.7005V29.5105H126.085V33.5051H130.247V34.4944L126.085 34.495V38.4895H130.7V39.51H125.122V28.49H130.7V29.7005H130.869V29.5105V29.7005H131.038V28.3V28.11H124.784V39.89H131.038V38.2995V38.1095H126.423V34.875H130.585V33.3151V33.1251H126.423V29.8905H131.038V29.7005H130.869" fill="white"/>
<path d="M136.36 39.7H135.057V29.7005H132.227V28.3H139.19V29.7005H136.36V39.7Z" fill="white"/>
<path d="M136.36 39.7V39.51H135.226V29.5105H132.396V28.49H139.021V29.5105H136.191V39.7H136.36V39.51V39.7H136.529V29.8905H139.359V28.3V28.11H132.058V29.7005V29.8905H134.888V39.89H136.36H136.529V39.7H136.36" fill="white"/>
<path d="M144.229 39.7V28.3H145.53V39.7H144.229Z" fill="white"/>
<path d="M144.228 39.7H144.397V28.49H145.361V39.51H144.228V39.7H144.397H144.228V39.89H145.53H145.699V28.11H144.228H144.06V39.89H144.228V39.7Z" fill="white"/>
<path d="M151.306 39.7H150.003V29.7005H147.173V28.3H154.136V29.7005H151.306V39.7Z" fill="white"/>
<path d="M151.306 39.7V39.51H150.172V29.5105H147.342V28.49H153.967V29.5105H151.137V39.7H151.306V39.51V39.7H151.475V29.8905H154.305V28.3V28.11H147.004V29.7005V29.8905H149.834V39.89H151.306H151.475V39.7H151.306" fill="white"/>
<path d="M160.849 37.2724C161.599 38.1267 162.517 38.5534 163.602 38.5534C164.688 38.5534 165.606 38.1267 166.355 37.2724C167.106 36.4182 167.482 35.3263 167.482 34.0001C167.482 32.6739 167.106 31.5819 166.355 30.7277C165.606 29.8734 164.688 29.4467 163.602 29.4467C162.517 29.4467 161.599 29.8734 160.849 30.7277C160.101 31.5819 159.725 32.6739 159.725 34.0001C159.725 35.3263 160.101 36.4182 160.849 37.2724ZM167.318 38.2268C166.322 39.3793 165.083 39.9547 163.602 39.9547C162.121 39.9547 160.882 39.3793 159.888 38.2268C158.891 37.0756 158.395 35.6664 158.395 34.0001C158.395 32.3338 158.891 30.9243 159.888 29.7733C160.882 28.6206 162.121 28.0447 163.602 28.0447C165.075 28.0447 166.311 28.6236 167.311 29.7807C168.311 30.9378 168.811 32.3442 168.811 34.0001C168.811 35.6664 168.312 37.0756 167.318 38.2268Z" fill="white"/>
<path d="M160.85 37.2724L160.729 37.4059C161.507 38.2944 162.478 38.7456 163.603 38.7433C164.727 38.7456 165.699 38.2944 166.475 37.4059C167.258 36.5167 167.652 35.3663 167.651 34C167.652 32.6337 167.258 31.4833 166.475 30.5941C165.699 29.7056 164.727 29.2544 163.603 29.2566C162.478 29.2544 161.507 29.7056 160.729 30.5941C159.948 31.4833 159.554 32.6337 159.556 34C159.554 35.3663 159.948 36.5167 160.729 37.4059L160.85 37.2724L160.97 37.1388C160.253 36.3186 159.895 35.2869 159.894 34C159.895 32.7131 160.253 31.6814 160.97 30.8612C161.693 30.0412 162.556 29.6389 163.603 29.6366C164.648 29.6389 165.514 30.0412 166.235 30.8612C166.953 31.6814 167.311 32.7131 167.312 34C167.311 35.2869 166.953 36.3186 166.235 37.1388C165.514 37.9588 164.648 38.3611 163.603 38.3633C162.556 38.3611 161.693 37.9588 160.97 37.1388L160.85 37.2724ZM167.318 38.2267L167.197 38.0947C166.229 39.2109 165.045 39.7623 163.603 39.7646C162.16 39.7623 160.976 39.2109 160.009 38.0947L160.004 38.0888L160.009 38.0947C159.043 36.9746 158.566 35.6239 158.564 34C158.566 32.3761 159.043 31.0254 160.009 29.9053C160.976 28.7891 162.16 28.2369 163.603 28.2346C165.035 28.2369 166.217 28.7913 167.191 29.9135C168.161 31.0387 168.64 32.3873 168.642 34C168.64 35.6239 168.162 36.9746 167.197 38.0947L167.318 38.2267L167.44 38.3588C168.463 37.1758 168.981 35.7085 168.98 34C168.981 32.3012 168.461 30.8369 167.433 29.6486C166.404 28.4558 165.115 27.8525 163.603 27.8546C162.083 27.8525 160.79 28.4529 159.767 29.6412V29.6404C158.741 30.8241 158.225 32.2915 158.227 34C158.225 35.7085 158.741 37.1758 159.767 38.3595L159.772 38.3649L159.767 38.3588C160.79 39.547 162.083 40.1461 163.603 40.1446C165.122 40.1461 166.415 39.547 167.44 38.3588L167.318 38.2267" fill="white"/>
<path d="M170.638 39.7V28.3H172.223L177.148 37.1685H177.204L177.148 34.9715V28.3H178.451V39.7H177.092L171.939 30.4018H171.883L171.939 32.5995V39.7H170.638Z" fill="white"/>
<path d="M170.638 39.7H170.807V28.49H172.129L177.054 37.3585H177.204H177.377L177.317 34.9686V28.49H178.282V39.51H177.186L172.033 30.2118H171.883H171.71L171.77 32.6026V39.51H170.638V39.7H170.807H170.638V39.89H171.939H172.108V32.5965L172.052 30.3967L171.883 30.4018V30.5918H171.939V30.4018L171.796 30.5029L176.998 39.89H178.451H178.62V28.11H177.148H176.979V34.9738L177.035 37.1736L177.204 37.1685V36.9785H177.148V37.1685L177.291 37.0676L172.317 28.11H170.638H170.469V39.89H170.638V39.7Z" fill="white"/>
<path d="M223.603 72H226.754V48.2477H223.603V72ZM251.988 56.8038L248.376 67.1016H248.267L244.518 56.8038H241.123L246.746 71.1968L243.54 79.2029H246.829L255.493 56.8038H251.988ZM234.116 69.3022C233.083 69.3022 231.644 68.7217 231.644 67.2849C231.644 65.4516 233.437 64.7488 234.984 64.7488C236.371 64.7488 237.021 65.0849 237.864 65.5438C237.619 67.7436 235.935 69.3022 234.116 69.3022V69.3022ZM234.496 56.2841C232.215 56.2841 229.852 57.4152 228.874 59.9209L231.671 61.2346C232.269 59.9209 233.382 59.4926 234.55 59.4926C236.18 59.4926 237.837 60.5933 237.864 62.549V62.7931C237.293 62.4264 236.072 61.8766 234.577 61.8766C231.563 61.8766 228.492 63.7401 228.492 67.2239C228.492 70.4021 230.965 72.4497 233.735 72.4497C235.854 72.4497 237.021 71.3802 237.756 70.1275H237.864V71.9606H240.906V62.8539C240.906 58.6376 238.109 56.2841 234.496 56.2841V56.2841ZM215.02 59.6952H210.538V51.5535H215.02C217.376 51.5535 218.714 53.748 218.714 55.6242C218.714 57.465 217.376 59.6952 215.02 59.6952ZM214.939 48.2477H207.388V72H210.538V63.001H214.939C218.432 63.001 221.865 60.1561 221.865 55.6242C221.865 51.0926 218.432 48.2477 214.939 48.2477ZM173.762 69.3065C171.585 69.3065 169.762 67.2559 169.762 64.4393C169.762 61.5931 171.585 59.5113 173.762 59.5113C175.912 59.5113 177.598 61.5931 177.598 64.4393C177.598 67.2559 175.912 69.3065 173.762 69.3065V69.3065ZM177.381 58.1338H177.272C176.565 57.1851 175.204 56.328 173.49 56.328C169.898 56.328 166.606 59.8785 166.606 64.4393C166.606 68.9697 169.898 72.4898 173.49 72.4898C175.204 72.4898 176.565 71.6325 177.272 70.6536H177.381V71.8166C177.381 74.9087 175.912 76.5615 173.544 76.5615C171.613 76.5615 170.415 74.9999 169.925 73.6839L167.177 74.9695C167.967 77.1121 170.062 79.7448 173.544 79.7448C177.245 79.7448 180.374 77.2955 180.374 71.3268V56.8178H177.381V58.1338ZM182.55 72H185.706V48.2469H182.55V72ZM190.359 64.164C190.278 61.0415 192.509 59.4503 194.114 59.4503C195.366 59.4503 196.427 60.1538 196.78 61.1648L190.359 64.164ZM200.154 61.4705C199.557 59.664 197.733 56.328 194.005 56.328C190.305 56.328 187.23 59.6032 187.23 64.4089C187.23 68.9393 190.278 72.4898 194.359 72.4898C197.651 72.4898 199.557 70.2246 200.345 68.9087L197.896 67.0717C197.081 68.4188 195.964 69.3065 194.359 69.3065C192.754 69.3065 191.611 68.4798 190.876 66.858L200.48 62.3886L200.154 61.4705ZM123.634 58.8075V62.2357H130.926C130.708 64.164 130.137 65.5719 129.266 66.5515C128.205 67.7457 126.545 69.0616 123.634 69.0616C119.144 69.0616 115.635 64.9907 115.635 59.9401C115.635 54.8895 119.144 50.818 123.634 50.818C126.056 50.818 127.824 51.8896 129.13 53.2671L131.279 50.8492C129.456 48.8897 127.035 47.3898 123.634 47.3898C117.484 47.3898 112.315 53.0222 112.315 59.9401C112.315 66.858 117.484 72.4898 123.634 72.4898C126.954 72.4898 129.456 71.266 131.415 68.9697C133.429 66.7045 134.055 63.5212 134.055 60.9503C134.055 60.1538 134.001 59.4199 133.891 58.8075H123.634ZM142.345 69.3065C140.168 69.3065 138.29 67.2863 138.29 64.4089C138.29 61.5009 140.168 59.5113 142.345 59.5113C144.521 59.5113 146.399 61.5009 146.399 64.4089C146.399 67.2863 144.521 69.3065 142.345 69.3065V69.3065ZM142.345 56.328C138.372 56.328 135.134 59.7256 135.134 64.4089C135.134 69.0616 138.372 72.4898 142.345 72.4898C146.317 72.4898 149.555 69.0616 149.555 64.4089C149.555 59.7256 146.317 56.328 142.345 56.328ZM158.074 69.3065C155.898 69.3065 154.02 67.2863 154.02 64.4089C154.02 61.5009 155.898 59.5113 158.074 59.5113C160.25 59.5113 162.128 61.5009 162.128 64.4089C162.128 67.2863 160.25 69.3065 158.074 69.3065ZM158.074 56.328C154.101 56.328 150.864 59.7256 150.864 64.4089C150.864 69.0616 154.101 72.4898 158.074 72.4898C162.046 72.4898 165.284 69.0616 165.284 64.4089C165.284 59.7256 162.046 56.328 158.074 56.328Z" fill="white"/>
<path d="M60.7499 76.5401L60.6244 76.405C60.1329 75.82 59.8428 74.9116 59.8428 73.7353V74.0121V31.9917C59.8428 31.9879 59.8428 31.9851 59.8428 31.982C59.8428 31.9857 59.8428 31.9887 59.8428 31.9925V32.2701C59.8428 30.9963 60.1811 30.0368 60.7478 29.4615L81.6728 53.0016L60.7499 76.5401ZM59.8428 31.9798C59.8428 31.8751 59.8453 31.7734 59.85 31.6733C59.8453 31.7727 59.8428 31.8751 59.8428 31.9798ZM59.85 31.6687C59.85 31.6674 59.85 31.6659 59.8505 31.6644C59.85 31.6659 59.85 31.6674 59.85 31.6687ZM59.8505 31.6554C59.8505 31.6547 59.8505 31.6539 59.8505 31.6532C59.8505 31.6539 59.8505 31.6547 59.8505 31.6554Z" fill="url(#paint0_linear_8035_55748)"/>
<path d="M88.6468 61.1291L88.8059 61.0274L97.0694 55.7452C97.8573 55.2414 98.3824 54.6305 98.6443 53.9841C98.383 54.6305 97.8578 55.2421 97.0694 55.746L88.8059 61.0282L88.6468 61.1291V61.1291ZM88.6488 60.8507L81.6729 53.0015L88.6481 45.1535L97.0694 50.5358C98.1388 51.2194 98.7392 52.1005 98.8396 53.0007C98.8396 53.0015 98.8396 53.003 98.8396 53.0043C98.7392 53.9024 98.1388 54.7842 97.0694 55.4677L88.6488 60.8507" fill="url(#paint1_linear_8035_55748)"/>
<path d="M62.2415 77.4365C61.657 77.4365 61.1469 77.2228 60.7492 76.819L60.7499 76.8183C61.1476 77.222 61.6583 77.4365 62.2428 77.4365C62.2935 77.4365 62.345 77.435 62.3972 77.4322C62.3443 77.435 62.2921 77.4365 62.2415 77.4365V77.4365ZM62.2422 77.1582C61.6576 77.1589 61.1476 76.9444 60.7499 76.5407V76.5401L81.6728 53.0016L88.6488 60.8508L64.1342 76.5207C63.456 76.9534 62.8133 77.1582 62.2422 77.1582V77.1582ZM60.7439 76.8139C60.707 76.7761 60.6706 76.736 60.635 76.6944L60.7439 76.8139Z" fill="url(#paint2_linear_8035_55748)"/>
<path d="M81.6728 53.0016L60.7478 29.4615C61.1455 29.0585 61.6549 28.8448 62.2388 28.8448C62.8115 28.8448 63.4546 29.0504 64.1342 29.4838L88.6481 45.1536L81.6728 53.0016V53.0016ZM88.8058 44.9764L64.1342 29.2064C63.4546 28.7728 62.8115 28.5672 62.2388 28.5672C62.2361 28.5672 62.2342 28.5672 62.2315 28.5672C62.2349 28.5672 62.2374 28.5672 62.2415 28.5672C62.8128 28.5672 63.4553 28.772 64.1342 29.2056L88.8058 44.9764V44.9764Z" fill="url(#paint3_linear_8035_55748)"/>
<path d="M62.3973 77.4321C62.9283 77.3979 63.5162 77.1923 64.1344 76.7983L88.6469 61.1292L64.1344 76.7983C63.5167 77.1931 62.9283 77.3979 62.3973 77.4321V77.4321ZM60.7493 76.819L60.7441 76.8139C60.7459 76.8154 60.748 76.8175 60.7493 76.819ZM60.6352 76.6944L60.6245 76.6826V76.6818C60.6286 76.6862 60.6318 76.6906 60.6352 76.6944Z" fill="black"/>
<path d="M88.6467 61.1291L88.8058 61.0274L88.6467 61.1291Z" fill="url(#paint4_linear_8035_55748)"/>
<path d="M62.243 77.4365C61.6585 77.4365 61.1477 77.222 60.75 76.8183L60.7493 76.819C60.748 76.8175 60.7459 76.8154 60.7441 76.8139L60.6352 76.6944C60.6318 76.6906 60.6286 76.6862 60.6245 76.6818L60.75 76.5407C61.1477 76.9444 61.6578 77.1589 62.2423 77.1582C62.8135 77.1582 63.4561 76.9534 64.1344 76.5207L88.6489 60.8508L88.806 61.0275L88.6469 61.1292L64.1344 76.7983C63.5162 77.1924 62.9283 77.398 62.3973 77.4322C62.3452 77.435 62.2936 77.4365 62.243 77.4365" fill="url(#paint5_linear_8035_55748)"/>
<path d="M60.6244 76.6826C60.1329 76.0975 59.8428 75.1892 59.8428 74.0129V74.0121C59.8428 75.1892 60.1329 76.0968 60.6244 76.6818V76.6826" fill="black"/>
<path d="M60.6244 76.6818C60.1329 76.0968 59.8428 75.1892 59.8428 74.0121V73.7353C59.8428 74.9116 60.1329 75.82 60.6244 76.405L60.7499 76.5401L60.6244 76.6818" fill="url(#paint6_linear_8035_55748)"/>
<path d="M60.6245 76.6818L60.75 76.5401V76.5406L60.6245 76.6818" fill="url(#paint7_linear_8035_55748)"/>
<path d="M98.6443 53.9842C98.7742 53.6635 98.8395 53.334 98.8395 53.0044C98.8395 53.0038 98.8395 53.003 98.8395 53.003C98.8395 53.3332 98.7742 53.6627 98.6443 53.9842Z" fill="black"/>
<path d="M88.806 61.0275L88.6489 60.8508L97.0696 55.4677C98.139 54.7843 98.7394 53.9025 98.8397 53.0043C98.8397 53.334 98.7743 53.6634 98.6444 53.9842C98.3825 54.6305 97.8574 55.2414 97.0696 55.7453L88.806 61.0275Z" fill="url(#paint8_linear_8035_55748)"/>
<path d="M98.8395 53.0016V53.0008C98.8389 52.0069 98.2484 51.0132 97.0694 50.2591L88.8059 44.9769H88.8052L88.8059 44.9764L97.0694 50.2584C98.2498 51.0125 98.8409 52.0077 98.8395 53.0016Z" fill="#404040"/>
<path d="M98.8396 53.0007C98.7393 52.1005 98.1389 51.2195 97.0695 50.5359L88.6482 45.1536L88.8053 44.9769H88.8059L97.0695 50.259C98.2485 51.0131 98.8389 52.0068 98.8396 53.0007Z" fill="url(#paint9_linear_8035_55748)"/>
<path d="M59.8428 31.982C59.8428 31.9812 59.8428 31.9805 59.8428 31.9797C59.8428 31.9805 59.8428 31.9812 59.8428 31.982ZM59.85 31.6732C59.85 31.6717 59.85 31.6702 59.85 31.6687C59.85 31.6702 59.85 31.6717 59.85 31.6732ZM59.8505 31.6643C59.8505 31.6613 59.8505 31.6584 59.8505 31.6554C59.8505 31.6584 59.8505 31.6613 59.8505 31.6643ZM59.8505 31.6531C59.9483 29.7012 60.8917 28.5738 62.2263 28.5671C61.6477 28.5709 61.1437 28.7847 60.7492 29.1846V29.1839L60.7445 29.1892C60.7029 29.2314 60.6634 29.276 60.6244 29.322C60.1811 29.8496 59.9014 30.64 59.8505 31.6531Z" fill="#404040"/>
<path d="M59.8428 32.27V31.9924C59.8428 31.9886 59.8428 31.9856 59.8428 31.982C59.8428 31.9812 59.8428 31.9805 59.8428 31.9797C59.8428 31.875 59.8453 31.7726 59.85 31.6732C59.85 31.6717 59.85 31.6702 59.85 31.6687C59.85 31.6673 59.85 31.6658 59.8505 31.6643C59.8505 31.6613 59.8505 31.6584 59.8505 31.6554C59.8505 31.6546 59.8505 31.6539 59.8505 31.6531C59.9014 30.64 60.1811 29.8496 60.6244 29.322L60.7478 29.4614C60.1811 30.0368 59.8428 30.9963 59.8428 32.27V32.27ZM60.7445 29.1892L60.7492 29.1838C60.7478 29.1861 60.7458 29.1876 60.7445 29.1892Z" fill="url(#paint10_linear_8035_55748)"/>
<path d="M88.6482 45.1535L64.1344 29.4836C63.4548 29.0502 62.8116 28.8447 62.2389 28.8447C61.6551 28.8447 61.1457 29.0584 60.748 29.4614L60.6245 29.3219C60.6635 29.276 60.703 29.2313 60.7446 29.1891C60.7459 29.1876 60.748 29.1861 60.7493 29.1846C61.1438 28.7846 61.6478 28.5709 62.2264 28.5671C62.2278 28.5671 62.2296 28.5671 62.2317 28.5671C62.2344 28.5671 62.2362 28.5671 62.2389 28.5671C62.8116 28.5671 63.4548 28.7726 64.1344 29.2062L88.806 44.9762L88.8053 44.9768L88.6482 45.1535Z" fill="url(#paint11_linear_8035_55748)"/>
</svg>
