<svg width="125" height="164" viewBox="0 0 125 164" fill="none" xmlns="http://www.w3.org/2000/svg">
<path d="M87.7 161C95.6 161 102 154.63 102 146.767V72.8134C102 50.916 84 33 62 33C40 33 22 50.916 22 72.8134V146.767C22 154.63 28.4 161 36.3 161H87.7Z" fill="#FFD24A"/>
<path d="M87.5201 164H36.284C27.0137 164 19.5376 156.509 19.5376 147.22V73.011C19.5376 49.6395 38.5767 30.5627 61.902 30.5627C85.2274 30.5627 104.266 49.6395 104.266 73.011V147.22C104.266 156.409 96.7904 164 87.5201 164ZM61.902 35.5567C41.2681 35.5567 24.5216 52.3362 24.5216 73.011V147.22C24.5216 153.713 29.8047 159.006 36.284 159.006H87.5201C93.9993 159.006 99.2824 153.713 99.2824 147.22V73.011C99.2824 52.3362 82.536 35.5567 61.902 35.5567Z" fill="#008169"/>
<path d="M86.3016 91.2362L79 84L54.9762 107.618L45.3016 98.0301L38 105.176L54.9762 122L86.3016 91.2362Z" fill="#008169"/>
<path d="M17.6435 0L21.1324 6.29233C22.9266 9.58831 25.7177 12.3849 29.0072 14.1827L35.2871 17.6784L28.9075 21.1742C25.618 22.972 22.9266 25.6687 21.1324 28.9647L17.6435 35.257L14.1547 28.9647C12.3604 25.6687 9.56938 22.8721 6.2799 21.0743L0 17.6784L6.2799 14.1827C9.56938 12.3849 12.3604 9.58831 14.1547 6.29233L17.6435 0Z" fill="#52E7FF"/>
<path d="M113.537 23.8708L115.73 27.9659C116.926 30.1632 118.62 31.8611 120.813 33.0596L124.9 35.257L120.813 37.4543C118.62 38.6528 116.926 40.3508 115.73 42.5481L113.537 46.6431L111.344 42.5481C110.148 40.3508 108.453 38.6528 106.26 37.4543L102.173 35.257L106.26 33.0596C108.453 31.8611 110.148 30.1632 111.344 27.9659L113.537 23.8708Z" fill="#52E7FF"/>
</svg>
