<svg width="25" height="25" viewBox="0 0 25 25" fill="none" xmlns="http://www.w3.org/2000/svg">
<path d="M12.5 24C18.8513 24 24 18.8513 24 12.5C24 6.14873 18.8513 1 12.5 1C6.14873 1 1 6.14873 1 12.5C1 18.8513 6.14873 24 12.5 24Z" fill="#FFFEFA" stroke="#1F1E1C" stroke-miterlimit="10"/>
<path d="M1 12.5H24" stroke="#1F1E1C" stroke-miterlimit="10"/>
<path d="M12.5 1.06055V23.9395" stroke="#1F1E1C" stroke-miterlimit="10"/>
<path d="M12.5968 1C8.59 3.27579 5.89053 7.57316 5.89053 12.5C5.89053 17.4268 8.59 21.7242 12.5968 24C18.9037 23.9516 24 18.8311 24 12.5C24 6.16895 18.9037 1.04842 12.5968 1Z" stroke="#1F1E1C" stroke-miterlimit="10"/>
<path d="M12.4032 1C6.09632 1.04842 1 6.18105 1 12.5C1 18.8189 6.09632 23.9516 12.4032 24C16.3979 21.7242 19.1095 17.4389 19.1095 12.5C19.1095 7.56105 16.41 3.27579 12.4032 1Z" stroke="#1F1E1C" stroke-miterlimit="10"/>
<path d="M4.72842 4.03842C6.91948 5.62421 9.59474 6.56842 12.5 6.56842C15.4053 6.56842 18.0805 5.62421 20.2716 4.02632C18.2258 2.16211 15.5021 1 12.5 1C9.4979 1 6.77421 2.16211 4.72842 4.03842Z" stroke="#1F1E1C" stroke-miterlimit="10"/>
<path d="M4.72842 20.9615C6.77421 22.8379 9.4979 24 12.5 24C15.5021 24 18.2258 22.8379 20.2716 20.9615C18.0926 19.3757 15.4053 18.4194 12.5 18.4194C9.59474 18.4194 6.91948 19.3757 4.72842 20.9615Z" stroke="#1F1E1C" stroke-miterlimit="10"/>
</svg>
