<svg width="25" height="25" viewBox="0 0 25 25" fill="none" xmlns="http://www.w3.org/2000/svg">
<path d="M12.5 24C18.8513 24 24 18.8513 24 12.5C24 6.14873 18.8513 1 12.5 1C6.14873 1 1 6.14873 1 12.5C1 18.8513 6.14873 24 12.5 24Z" fill="#FFFEFA" stroke="#1F1E1C" stroke-miterlimit="10"/>
<path d="M16.519 10.0427C16.5311 9.23161 16.5311 8.42056 16.519 8.23898C16.3979 6.39898 14.8121 4.8374 12.8995 4.68003C12.7784 4.66793 12.6574 4.66793 12.5484 4.66793C11.5074 4.65582 10.5874 4.98266 9.82474 5.63635C9.06211 6.27793 8.5658 7.23424 8.48106 8.17845C8.46895 8.34793 8.46895 9.2074 8.46895 10.0427C7.70632 10.1879 7.13737 10.8416 7.13737 11.6163V18.7221C7.13737 19.6058 7.8879 20.3321 8.8079 20.3321H16.1921C17.1121 20.3321 17.8626 19.6179 17.8626 18.7221V11.6163C17.8626 10.8416 17.2816 10.1879 16.519 10.0427ZM13.4079 16.4463C13.19 16.6642 12.8995 16.7853 12.5968 16.7853C12.2942 16.7853 12.0037 16.6642 11.7858 16.4463C11.5679 16.2285 11.4468 15.9379 11.4468 15.6353C11.4468 15.3569 11.5437 15.0906 11.7253 14.8969C11.7011 14.8121 11.689 14.7274 11.689 14.6427C11.689 14.1463 12.1005 13.7348 12.5968 13.7348C12.839 13.7348 13.069 13.8316 13.2384 14.0011C13.4079 14.1706 13.5047 14.4006 13.5047 14.6427C13.5047 14.7274 13.4926 14.8121 13.4684 14.8969C13.6379 15.1027 13.7468 15.369 13.7468 15.6353C13.7468 15.9379 13.6258 16.2285 13.4079 16.4463ZM10.1879 10.0063C10.2121 8.95319 10.2968 7.79108 10.5147 7.44003C10.9384 6.75003 11.6405 6.33845 12.4395 6.31424C12.4637 6.31424 12.5 6.31424 12.5242 6.31424C13.3353 6.32635 14.0374 6.72582 14.4732 7.41582C14.7153 7.80319 14.8 8.92898 14.8242 10.0063H10.1879V10.0063Z" fill="#1F1E1C"/>
</svg>
