<svg width="125" height="164" viewBox="0 0 125 164" fill="none" xmlns="http://www.w3.org/2000/svg">
<path d="M87.7 161C95.6 161 102 154.63 102 146.767V72.8134C102 50.916 84 33 62 33C40 33 22 50.916 22 72.8134V146.767C22 154.63 28.4 161 36.3 161H87.7Z" fill="#FFD24A"/>
<rect x="44" y="110.246" width="41.3594" height="9.55254" transform="rotate(-45 44 110.246)" fill="#FF3226"/>
<rect x="50.7549" y="81" width="41.3594" height="9.55254" transform="rotate(45 50.7549 81)" fill="#FF3226"/>
<path d="M87.5201 164H36.284C27.0137 164 19.5376 156.509 19.5376 147.22V73.011C19.5376 49.6395 38.5767 30.5627 61.902 30.5627C85.2274 30.5627 104.266 49.6395 104.266 73.011V147.22C104.266 156.409 96.7904 164 87.5201 164ZM61.902 35.5567C41.2681 35.5567 24.5216 52.3362 24.5216 73.011V147.22C24.5216 153.713 29.8047 159.006 36.284 159.006H87.5201C93.9993 159.006 99.2824 153.713 99.2824 147.22V73.011C99.2824 52.3362 82.536 35.5567 61.902 35.5567Z" fill="#FF3226"/>
</svg>
