<svg width="30" height="30" viewBox="0 0 30 30" fill="none" xmlns="http://www.w3.org/2000/svg">
<path d="M15 4C11.14 4 8 7.14 8 11V23.54C8 24.89 9.11 26 10.46 26H19.53C20.89 26 21.99 24.89 21.99 23.54V11C22 7.14 18.86 4 15 4Z" fill="#FFD24A"/>
<path d="M19.54 27H10.46C8.55 27 7 25.45 7 23.54V11C7 6.59 10.59 3 15 3C19.41 3 23 6.59 23 11V23.54C23 25.45 21.45 27 19.54 27ZM15 4C11.14 4 8 7.14 8 11V23.54C8 24.89 9.11 26 10.46 26H19.53C20.89 26 21.99 24.89 21.99 23.54V11C22 7.14 18.86 4 15 4Z" fill="#1F1E1C"/>
<path d="M18 20.0001H12C11.45 20.0001 11 19.5501 11 19.0001V15.6101C11 15.0601 11.45 14.6101 12 14.6101H18C18.55 14.6101 19 15.0601 19 15.6101V19.0001C19 19.5501 18.55 20.0001 18 20.0001Z" fill="#008169"/>
<path d="M17.58 15.14V13.08C17.58 11.66 16.42 10.5 15 10.5C13.58 10.5 12.42 11.66 12.42 13.08V15.14H17.58Z" fill="#52E7FF" stroke="#008169" stroke-miterlimit="10"/>
</svg>
