<svg width="30" height="30" viewBox="0 0 30 30" fill="none" xmlns="http://www.w3.org/2000/svg">
<path d="M15.3053 4C11.1667 4 7.79999 7.14 7.79999 11V23.54C7.79999 24.89 8.99012 26 10.4376 26H20.1624C21.6206 26 22.8 24.89 22.8 23.54V11C22.8107 7.14 19.444 4 15.3053 4Z" fill="#52E7FF"/>
<mask id="mask0_1170_37557" style="mask-type:alpha" maskUnits="userSpaceOnUse" x="7" y="4" width="15" height="22">
<path d="M14.99 4C11.13 4 7.98999 7.14 7.98999 11V23.54C7.98999 24.89 9.09999 26 10.46 26H19.53C20.89 26 21.99 24.89 21.99 23.54V11C21.99 7.14 18.85 4 14.99 4Z" fill="#52E7FF"/>
</mask>
<g mask="url(#mask0_1170_37557)">
<path d="M17.77 22.9201H5.82999C4.43999 22.9201 3.29999 21.7801 3.29999 20.3901V13.4601C3.29999 12.0701 4.43999 10.9301 5.82999 10.9301H17.76C19.15 10.9301 20.29 12.0701 20.29 13.4601V20.3901C20.3 21.7801 19.16 22.9201 17.77 22.9201Z" fill="#008169" stroke="#1F1E1C" stroke-miterlimit="10"/>
<path d="M17.77 10.92H5.82999C4.98999 10.92 4.23999 11.34 3.77999 11.98L9.66999 17.87C10.84 19.04 12.75 19.04 13.91 17.87L19.8 11.98C19.35 11.34 18.61 10.92 17.77 10.92Z" fill="#FFD24A" stroke="#1F1E1C" stroke-miterlimit="10"/>
</g>
<path d="M19.53 27H10.46C8.55 27 7 25.45 7 23.54V11C7 6.59 10.59 3 15 3C19.41 3 23 6.59 23 11V23.54C22.99 25.45 21.44 27 19.53 27ZM14.99 4C11.13 4 7.99 7.14 7.99 11V23.54C7.99 24.89 9.1 26 10.46 26H19.53C20.89 26 21.99 24.89 21.99 23.54V11C21.99 7.14 18.85 4 14.99 4Z" fill="#1F1E1C"/>
</svg>
