<svg width="30" height="30" viewBox="0 0 30 30" fill="none" xmlns="http://www.w3.org/2000/svg">
<path d="M15 4C11.14 4 8 7.14 8 11V23.54C8 24.89 9.11 26 10.46 26H19.53C20.89 26 21.99 24.89 21.99 23.54V11C22 7.14 18.86 4 15 4Z" fill="#52E7FF"/>
<path d="M19.54 27H10.46C8.55 27 7 25.45 7 23.54V11C7 6.59 10.59 3 15 3C19.41 3 23 6.59 23 11V23.54C23 25.45 21.45 27 19.54 27ZM15 4C11.14 4 8 7.14 8 11V23.54C8 24.89 9.11 26 10.46 26H19.53C20.89 26 21.99 24.89 21.99 23.54V11C22 7.14 18.86 4 15 4Z" fill="#1F1E1C"/>
<path d="M10.46 26.5C8.83 26.5 7.5 25.17 7.5 23.54V11C7.5 7.03002 10.6 3.77002 14.5 3.52002V26.5H10.46Z" fill="#FFD24A"/>
<path d="M14 4.07V26H10.46C9.11 26 8 24.89 8 23.54V11C8 7.48 10.61 4.56 14 4.07ZM15 3C10.59 3 7 6.59 7 11V23.54C7 25.45 8.55 27 10.46 27H15V3Z" fill="#1F1E1C"/>
<path d="M18.6 19.3C19.9807 19.3 21.1 18.1808 21.1 16.8C21.1 15.4193 19.9807 14.3 18.6 14.3C17.2193 14.3 16.1 15.4193 16.1 16.8C16.1 18.1808 17.2193 19.3 18.6 19.3Z" fill="url(#paint0_linear_1170_37677)"/>
<path d="M18.6 19.8C16.95 19.8 15.6 18.45 15.6 16.8C15.6 15.15 16.95 13.8 18.6 13.8C20.25 13.8 21.6 15.15 21.6 16.8C21.6 18.45 20.25 19.8 18.6 19.8ZM18.6 14.8C17.5 14.8 16.6 15.7 16.6 16.8C16.6 17.9 17.5 18.8 18.6 18.8C19.7 18.8 20.6 17.9 20.6 16.8C20.6 15.7 19.7 14.8 18.6 14.8Z" fill="#1F1E1C"/>
<path d="M14.3 26.5H22.9C23.34 26.5 23.7 26.14 23.7 25.7V24.76C23.7 22.53 21.87 20.7 19.64 20.7H17.56C15.33 20.7 13.5 22.53 13.5 24.76V25.7C13.5 26.14 13.86 26.5 14.3 26.5Z" fill="#008169"/>
<path d="M22.9 27H14.3C13.58 27 13 26.42 13 25.7V24.76C13 22.25 15.05 20.2 17.56 20.2H19.64C22.15 20.2 24.2 22.25 24.2 24.76V25.7C24.2 26.42 23.62 27 22.9 27ZM17.56 21.2C15.6 21.2 14 22.8 14 24.76V25.7C14 25.87 14.13 26 14.3 26H22.9C23.07 26 23.2 25.87 23.2 25.7V24.76C23.2 22.8 21.6 21.2 19.64 21.2H17.56Z" fill="#1F1E1C"/>
<defs>
<linearGradient id="paint0_linear_1170_37677" x1="21.1" y1="16.6438" x2="20.8663" y2="17.715" gradientUnits="userSpaceOnUse">
<stop stop-color="#FFD24A"/>
<stop offset="1" stop-color="#FFCB30"/>
</linearGradient>
</defs>
</svg>
