<svg width="30" height="30" viewBox="0 0 30 30" fill="none" xmlns="http://www.w3.org/2000/svg">
<path d="M15.0057 4C10.5911 4 7 7.14 7 11V23.54C7 24.89 8.26948 26 9.81343 26H20.1865C21.7419 26 23 24.89 23 23.54V11C23.0114 7.14 19.4203 4 15.0057 4Z" fill="#52E7FF"/>
<path d="M19.53 27H10.46C8.55 27 7 25.45 7 23.54V11C7 6.59 10.59 3 15 3C19.41 3 23 6.59 23 11V23.54C22.99 25.45 21.44 27 19.53 27ZM14.99 4C11.13 4 7.99 7.14 7.99 11V23.54C7.99 24.89 9.1 26 10.46 26H19.53C20.89 26 21.99 24.89 21.99 23.54V11C21.99 7.14 18.85 4 14.99 4Z" fill="#1F1E1C"/>
<mask id="mask0_1170_37624" style="mask-type:alpha" maskUnits="userSpaceOnUse" x="7" y="4" width="18" height="24">
<path d="M22.5 27.5L11 26C9.5 26.5 7.5 25.5 8 23.54V11C8 6.59 11.1413 4 15 4C18.8587 4 22 6.59 22 11L24 24.5C24 25.46 24.5 27.5 22.5 27.5Z" fill="#1F1E1C"/>
</mask>
<g mask="url(#mask0_1170_37624)">
<path d="M11.6 9.37012C12.9807 9.37012 14.1 8.25083 14.1 6.87012C14.1 5.48941 12.9807 4.37012 11.6 4.37012C10.2193 4.37012 9.09998 5.48941 9.09998 6.87012C9.09998 8.25083 10.2193 9.37012 11.6 9.37012Z" fill="#FFD24A"/>
<path d="M11.6 9.87012C9.94998 9.87012 8.59998 8.52012 8.59998 6.87012C8.59998 5.22012 9.94998 3.87012 11.6 3.87012C13.25 3.87012 14.6 5.22012 14.6 6.87012C14.6 8.52012 13.25 9.87012 11.6 9.87012ZM11.6 4.87012C10.5 4.87012 9.59998 5.77012 9.59998 6.87012C9.59998 7.97012 10.5 8.87012 11.6 8.87012C12.7 8.87012 13.6 7.97012 13.6 6.87012C13.6 5.77012 12.7 4.87012 11.6 4.87012Z" fill="#1F1E1C"/>
<path d="M7.3 16.57H15.9C16.34 16.57 16.7 16.21 16.7 15.77V14.83C16.7 12.6 14.87 10.77 12.64 10.77H10.56C8.33 10.77 6.5 12.6 6.5 14.83V15.77C6.5 16.21 6.86 16.57 7.3 16.57Z" fill="#008169"/>
<path d="M15.9 17.07H7.3C6.58 17.07 6 16.49 6 15.77V14.83C6 12.32 8.05 10.27 10.56 10.27H12.64C15.15 10.27 17.2 12.32 17.2 14.83V15.77C17.2 16.49 16.62 17.07 15.9 17.07ZM10.56 11.27C8.6 11.27 7 12.87 7 14.83V15.77C7 15.94 7.13 16.07 7.3 16.07H15.9C16.07 16.07 16.2 15.94 16.2 15.77V14.83C16.2 12.87 14.6 11.27 12.64 11.27H10.56Z" fill="#1F1E1C"/>
<path d="M18.03 19.3C19.4107 19.3 20.53 18.1808 20.53 16.8C20.53 15.4193 19.4107 14.3 18.03 14.3C16.6493 14.3 15.53 15.4193 15.53 16.8C15.53 18.1808 16.6493 19.3 18.03 19.3Z" fill="#FFD24A"/>
<path d="M18.03 19.8C16.38 19.8 15.03 18.45 15.03 16.8C15.03 15.15 16.38 13.8 18.03 13.8C19.68 13.8 21.03 15.15 21.03 16.8C21.03 18.45 19.69 19.8 18.03 19.8ZM18.03 14.8C16.93 14.8 16.03 15.7 16.03 16.8C16.03 17.9 16.93 18.8 18.03 18.8C19.13 18.8 20.03 17.9 20.03 16.8C20.03 15.7 19.13 14.8 18.03 14.8Z" fill="#1F1E1C"/>
<path d="M13.73 26.5H22.33C22.77 26.5 23.13 26.14 23.13 25.7V24.76C23.13 22.53 21.3 20.7 19.07 20.7H16.99C14.76 20.7 12.93 22.53 12.93 24.76V25.7C12.93 26.14 13.29 26.5 13.73 26.5Z" fill="#008169"/>
<path d="M22.33 27H13.73C13.01 27 12.43 26.42 12.43 25.7V24.76C12.43 22.25 14.48 20.2 16.99 20.2H19.07C21.58 20.2 23.63 22.25 23.63 24.76V25.7C23.63 26.42 23.05 27 22.33 27ZM16.99 21.2C15.03 21.2 13.43 22.8 13.43 24.76V25.7C13.43 25.87 13.56 26 13.73 26H22.33C22.5 26 22.63 25.87 22.63 25.7V24.76C22.63 22.8 21.03 21.2 19.07 21.2H16.99Z" fill="#1F1E1C"/>
</g>
</svg>
