<svg width="30" height="30" viewBox="0 0 30 30" fill="none" xmlns="http://www.w3.org/2000/svg">
<path d="M13.4 4C9.85 4 6.96 7.14 6.96 11V23.54C6.96 24.9 7.98 26 9.23 26H17.57C18.82 26 19.84 24.89 19.84 23.54V11C19.83 7.14 16.95 4 13.4 4Z" fill="#52E7FF"/>
<path d="M17.57 27H9.23C7.47 27 6.04 25.45 6.04 23.54V11C6.04 6.59 9.34 3 13.4 3C17.46 3 20.76 6.59 20.76 11V23.54C20.75 25.45 19.32 27 17.57 27ZM13.4 4C9.85 4 6.96 7.14 6.96 11V23.54C6.96 24.9 7.98 26 9.23 26H17.57C18.82 26 19.84 24.89 19.84 23.54V11C19.83 7.14 16.95 4 13.4 4Z" fill="#1F1E1C"/>
<path d="M20.46 18.78C20.07 18.78 19.7 18.61 19.43 18.32L17 15.65C16.07 14.63 16.07 13.02 17 12C17.48 11.49 18.08 11.22 18.72 11.22C19.38 11.22 19.99 11.5 20.44 12L20.46 12.02L20.48 12C20.96 11.49 21.56 11.22 22.2 11.22C22.78 11.22 23.33 11.44 23.76 11.84H23.79L23.93 12C24.86 13.01 24.85 14.65 23.92 15.66L21.49 18.33C21.21 18.62 20.85 18.78 20.46 18.78Z" fill="#FFD24A"/>
<path d="M22.2 11.7C22.7 11.7 23.19 11.91 23.57 12.32C23.58 12.31 23.58 12.31 23.58 12.31C24.35 13.14 24.34 14.49 23.57 15.32L21.14 18L21.13 18.01C20.95 18.21 20.7 18.31 20.46 18.31C20.22 18.31 19.97 18.21 19.78 18L17.35 15.33C16.59 14.5 16.59 13.16 17.35 12.32C17.36 12.31 17.36 12.31 17.37 12.3C17.74 11.9 18.23 11.7 18.72 11.7C19.22 11.7 19.71 11.91 20.09 12.32L20.46 12.73L20.83 12.32C20.84 12.31 20.84 12.31 20.85 12.3C21.23 11.9 21.71 11.7 22.2 11.7ZM22.2 10.74C21.56 10.74 20.96 10.96 20.46 11.36C19.96 10.96 19.36 10.74 18.72 10.74C17.94 10.74 17.22 11.06 16.67 11.65C15.55 12.89 15.55 14.77 16.64 15.98L19.07 18.65C19.43 19.04 19.93 19.27 20.45 19.27C20.97 19.27 21.46 19.06 21.82 18.67L24.27 15.98C25.38 14.77 25.38 12.88 24.27 11.67L24.04 11.42L23.99 11.41C23.5 10.97 22.87 10.74 22.2 10.74Z" fill="#1F1E1C"/>
<path d="M9.22998 26.3699C7.71998 26.3699 6.47998 25.0499 6.47998 23.4299V10.8899C6.47998 7.79988 8.19998 5.06988 10.87 3.93988C11.35 3.73988 11.86 3.62988 12.38 3.62988C12.9 3.62988 13.41 3.72988 13.89 3.93988C16.56 5.06988 18.28 7.79988 18.28 10.8899V23.4299C18.28 25.0499 17.05 26.3699 15.53 26.3699H9.22998Z" fill="#008169"/>
<path d="M12.38 4.11002C12.83 4.11002 13.28 4.20002 13.7 4.38002C16.1 5.40002 17.8 7.93002 17.8 10.89V23.43C17.8 24.79 16.79 25.89 15.53 25.89H9.23C7.98 25.89 6.96 24.79 6.96 23.43V10.89C6.96 7.93002 8.66 5.40002 11.06 4.38002C11.48 4.20002 11.93 4.11002 12.38 4.11002ZM12.38 3.15002C11.79 3.15002 11.22 3.27002 10.68 3.50002C7.84 4.71002 6 7.61002 6 10.89V23.43C6 25.32 7.45 26.85 9.23 26.85H15.54C17.32 26.85 18.77 25.31 18.77 23.43V10.89C18.77 7.61002 16.93 4.70002 14.09 3.49002C13.54 3.27002 12.96 3.15002 12.38 3.15002Z" fill="#1F1E1C"/>
</svg>
