<svg width="30" height="30" viewBox="0 0 30 30" fill="none" xmlns="http://www.w3.org/2000/svg">
<path d="M10.5962 26.2677C8.98407 26.2677 7.62 24.8767 7.62 23.2328V11.0932C7.62 7.0466 10.9682 3.63232 15.0604 3.63232C19.1526 3.63232 22.5008 6.92015 22.5008 11.0932V23.2328C22.5008 24.8767 21.1367 26.2677 19.5247 26.2677H10.5962Z" fill="#008169"/>
<path d="M15.0604 4.26455C18.7807 4.26455 21.8808 7.29946 21.8808 11.0931V23.2328C21.8808 24.4973 20.7648 25.6354 19.5247 25.6354H10.5962C9.35613 25.6354 8.24007 24.4973 8.24007 23.2328V11.0931C8.24007 7.29946 11.3402 4.26455 15.0604 4.26455ZM15.0604 3C10.5962 3 7 6.66719 7 11.0931V23.2328C7 25.256 8.61209 26.8999 10.5962 26.8999H19.4007C21.3848 26.8999 22.9969 25.256 22.9969 23.2328V11.0931C23.1209 6.66719 19.5247 3 15.0604 3Z" fill="#008169"/>
<path d="M15.0605 11.9785L15.9285 14.2547H18.5327L16.4245 15.6457L17.1686 17.9219L15.0605 16.5309L12.9523 17.9219L13.8204 15.6457L11.7123 14.2547H14.3164L15.0605 11.9785Z" fill="#FFD24A" stroke="#FFD24A" stroke-miterlimit="10" stroke-linecap="round" stroke-linejoin="round"/>
</svg>
