<svg width="30" height="30" viewBox="0 0 30 30" fill="none" xmlns="http://www.w3.org/2000/svg">
<path fill-rule="evenodd" clip-rule="evenodd" d="M17.5829 24.647C19.9143 21.303 23 14.923 23 12.14C23 7.641 19.4229 4 15 4C10.5771 4 7 7.652 7 12.14C7 14.923 10.0857 21.303 12.4171 24.647C13.6857 26.451 16.3143 26.451 17.5829 24.647ZM20.3571 11.8499C20.3571 14.7494 17.9586 17.0999 15 17.0999C12.0413 17.0999 9.64284 14.7494 9.64284 11.8499C9.64284 8.95037 12.0413 6.59987 15 6.59987C17.9586 6.59987 20.3571 8.95037 20.3571 11.8499Z" fill="#008169"/>
<path d="M17.5829 24.647L17.9919 24.9346L17.993 24.933L17.5829 24.647ZM12.4171 24.647L12.007 24.933L12.0081 24.9346L12.4171 24.647ZM22.5 12.14C22.5 12.7594 22.3251 13.6224 22.0042 14.6488C21.6861 15.6662 21.2356 16.8098 20.7098 17.9779C19.657 20.3164 18.3173 22.7193 17.1727 24.361L17.993 24.933C19.1798 23.2307 20.5487 20.7716 21.6216 18.3884C22.1586 17.1956 22.6253 16.0134 22.9586 14.9473C23.2891 13.8902 23.5 12.9121 23.5 12.14H22.5ZM15 4.5C19.1385 4.5 22.5 7.90888 22.5 12.14H23.5C23.5 7.37312 19.7072 3.5 15 3.5V4.5ZM7.5 12.14C7.5 7.91943 10.8619 4.5 15 4.5V3.5C10.2924 3.5 6.5 7.38457 6.5 12.14H7.5ZM12.8273 24.361C11.6827 22.7193 10.343 20.3164 9.29021 17.9779C8.76436 16.8098 8.31388 15.6662 7.99579 14.6488C7.67486 13.6224 7.5 12.7594 7.5 12.14H6.5C6.5 12.9121 6.71085 13.8902 7.04135 14.9473C7.37469 16.0134 7.84135 17.1956 8.37836 18.3884C9.45128 20.7716 10.8202 23.2307 12.007 24.933L12.8273 24.361ZM17.1739 24.3594C16.1044 25.8802 13.8956 25.8802 12.8261 24.3594L12.0081 24.9346C13.4759 27.0218 16.5241 27.0218 17.9919 24.9346L17.1739 24.3594ZM15 17.5999C18.2252 17.5999 20.8571 15.035 20.8571 11.8499H19.8571C19.8571 14.4637 17.6921 16.5999 15 16.5999V17.5999ZM9.14284 11.8499C9.14284 15.035 11.7747 17.5999 15 17.5999V16.5999C12.3079 16.5999 10.1428 14.4637 10.1428 11.8499H9.14284ZM15 6.09987C11.7747 6.09987 9.14284 8.66475 9.14284 11.8499H10.1428C10.1428 9.23599 12.3079 7.09987 15 7.09987V6.09987ZM20.8571 11.8499C20.8571 8.66475 18.2252 6.09987 15 6.09987V7.09987C17.6921 7.09987 19.8571 9.23599 19.8571 11.8499H20.8571Z" fill="#008169"/>
</svg>
