<svg width="30" height="30" viewBox="0 0 30 30" fill="none" xmlns="http://www.w3.org/2000/svg">
<path d="M9.51552 7.90088C7.22561 7.90088 5.36928 9.74158 5.36928 12.0122V22.3884H13.6618V12.0122C13.6618 9.74158 11.8054 7.90088 9.51552 7.90088Z" fill="#008169"/>
<path d="M4.77458 11.6962C4.77458 9.12305 6.86159 7 9.43371 7H16.6802V8.17466H12.5081C13.4796 9.03851 14.093 10.3012 14.093 11.6962V21.8393H24.8467C25.3776 21.8393 25.8154 21.4111 25.8154 20.8633V11.6962C25.8154 9.75119 24.2381 8.17466 22.3409 8.17466H18.6191V7H22.3409C24.913 7 27 9.12305 27 11.6962V20.8633C27 22.0506 26.0411 23.0139 24.8467 23.0139H17.2723V26.4127C17.2723 26.737 17.0071 27 16.68 27C16.3528 27 16.0876 26.737 16.0876 26.4127V23.0139H7.1466L7.14154 23.0139H3.59232C3.26519 23.0139 3 22.751 3 22.4266C3 22.1022 3.26519 21.8393 3.59232 21.8393L12.9082 21.8393V11.6962C12.9082 9.79867 11.4071 8.25185 9.57207 8.17746C9.54085 8.1762 9.50953 8.17536 9.47812 8.17495C9.46338 8.17476 9.44863 8.17466 9.43385 8.17466C7.53658 8.17466 5.95922 9.75119 5.95922 11.6962V20.364H4.77458V11.6962Z" fill="#1F1E1C"/>
<path d="M23.7731 11.4249C24.1002 11.4249 24.3654 11.1619 24.3654 10.8375C24.3654 10.5132 24.1002 10.2502 23.7731 10.2502L16.2285 10.2502C15.9014 10.2502 15.6362 10.5132 15.6362 10.8375C15.6362 11.1619 15.9014 11.4249 16.2285 11.4249H23.7731Z" fill="#1F1E1C"/>
<path d="M24.3654 14.2518L24.3654 10.2502H21.7114V14.2518H24.3654Z" fill="#008169"/>
</svg>
