<svg width="24" height="24" viewBox="0 0 24 24" fill="none" xmlns="http://www.w3.org/2000/svg">
<path d="M4.596 1.8C3.05115 1.8 1.8 3.04295 1.8 4.59599V7.07999C1.8 7.57705 1.39706 7.97999 0.9 7.97999C0.402944 7.97999 0 7.57705 0 7.07999V4.59599C0 2.04502 2.06085 0 4.596 0H7.14C7.63706 0 8.04 0.402944 8.04 0.9C8.04 1.39706 7.63706 1.8 7.14 1.8H4.596Z" fill="#1F1E1C"/>
<path d="M15.9 0.9C15.9 0.402944 16.3029 0 16.8 0H19.404C21.955 0 24 2.06083 24 4.59599V7.07999C24 7.57705 23.5971 7.97999 23.1 7.97999C22.6029 7.97999 22.2 7.57705 22.2 7.07999V4.59599C22.2 3.05114 20.957 1.8 19.404 1.8H16.8C16.3029 1.8 15.9 1.39706 15.9 0.9Z" fill="#1F1E1C"/>
<path d="M24 16.9201C24 16.4231 23.5971 16.0201 23.1 16.0201C22.6029 16.0201 22.2 16.4231 22.2 16.9201V19.4041C22.2 20.949 20.957 22.2001 19.404 22.2001H16.8C16.3029 22.2001 15.9 22.6031 15.9 23.1001C15.9 23.5972 16.3029 24.0001 16.8 24.0001H19.404C21.955 24.0001 24 21.9393 24 19.4041V16.9201Z" fill="#1F1E1C"/>
<path d="M0.9 16.0201C1.39706 16.0201 1.8 16.4231 1.8 16.9201V19.4041C1.8 20.9572 3.05115 22.2001 4.596 22.2001H7.14C7.63706 22.2001 8.04 22.6031 8.04 23.1001C8.04 23.5972 7.63706 24.0001 7.14 24.0001H4.596C2.06085 24.0001 0 21.9551 0 19.4041V16.9201C0 16.4231 0.402944 16.0201 0.9 16.0201Z" fill="#1F1E1C"/>
<path d="M6 10.8C5.33726 10.8 4.8 11.3373 4.8 12C4.8 12.6627 5.33726 13.2 6 13.2H18C18.6627 13.2 19.2 12.6627 19.2 12C19.2 11.3373 18.6627 10.8 18 10.8H6Z" fill="#1F1E1C"/>
</svg>
