<svg width="30" height="30" viewBox="0 0 30 30" fill="none" xmlns="http://www.w3.org/2000/svg">
<path d="M23.4939 5.6108L5.36392 12.9808C4.18392 13.4608 4.21392 15.0908 5.40392 15.5308L11.1039 17.6208C11.2539 17.6708 11.4039 17.6908 11.5539 17.6608V23.1708L14.3339 20.4708L15.1239 19.3808L17.8239 23.8108C18.4439 24.8308 20.0039 24.6908 20.4239 23.5708L25.4139 7.3408C25.8239 6.2108 24.6439 5.1508 23.4939 5.6108Z" fill="#FFFEFA"/>
<path fill-rule="evenodd" clip-rule="evenodd" d="M23.6831 6.07363C24.4812 5.74744 25.1845 6.49596 24.9352 7.16659C24.9319 7.17559 24.9288 7.18468 24.926 7.19385L19.9403 23.4099C19.6727 24.1133 18.6571 24.2225 18.24 23.5492L18.2393 23.548L15.1908 18.5504C15.047 18.3147 14.7393 18.2401 14.5035 18.3839C14.2678 18.5277 14.1933 18.8354 14.3371 19.0712L17.3871 24.0712L17.3885 24.0735C18.2297 25.4355 20.3247 25.269 20.8835 23.7427C20.8851 23.7381 20.8867 23.7335 20.8883 23.7289C20.8895 23.7252 20.8907 23.7215 20.8918 23.7177L25.8779 7.50057C26.4532 5.91743 24.8019 4.5366 23.3048 5.14795L5.17563 12.5176L5.17415 12.5182C3.58573 13.1699 3.6096 15.4018 5.2418 16.0002L10.9315 18.0902L10.9367 18.092C10.9755 18.1058 11.0146 18.1178 11.0539 18.1281V23.1709C11.0539 23.3718 11.1742 23.5532 11.3592 23.6314C11.5443 23.7097 11.7582 23.6695 11.9023 23.5296L14.6823 20.8296C14.8804 20.6372 14.885 20.3206 14.6926 20.1225C14.5002 19.9245 14.1837 19.9198 13.9856 20.1122L12.0539 21.9883V18.0231C12.1497 17.9746 12.2409 17.9147 12.3255 17.8437L19.9292 11.3305C20.1389 11.1509 20.1633 10.8352 19.9837 10.6255C19.804 10.4158 19.4884 10.3914 19.2787 10.5711L11.6809 17.0792C11.5692 17.1721 11.4173 17.2006 11.2732 17.1503L5.58605 15.0614C4.81846 14.7799 4.80275 13.752 5.5537 13.4434L23.6831 6.07363Z" fill="#1F1E1C"/>
</svg>
