<svg width="30" height="30" viewBox="0 0 30 30" fill="none" xmlns="http://www.w3.org/2000/svg">
<path d="M16.1157 5.8225C15.4284 5.3925 14.5617 5.3925 13.8743 5.8225L4.5 11.7525V14.0325V22.4025C4.5 23.5625 5.42647 24.5025 6.56214 24.5025H23.4379C24.5735 24.5025 25.5 23.5625 25.5 22.4025V14.0325V11.7525L16.1157 5.8225Z" fill="#FFFEFA"/>
<path fill-rule="evenodd" clip-rule="evenodd" d="M13.6091 5.39861C14.4587 4.86713 15.5313 4.86713 16.3809 5.39861L16.3828 5.39981L26 11.477V22.4025C26 23.8306 24.8577 25.0025 23.4379 25.0025H6.56214C5.14233 25.0025 4 23.8306 4 22.4025V11.4771L13.6091 5.39861ZM14.1405 6.24575C14.1401 6.24597 14.1398 6.24618 14.1395 6.24639L5 12.0279V22.4025C5 23.2944 5.71061 24.0025 6.56214 24.0025H23.4379C24.2894 24.0025 25 23.2944 25 22.4025V12.028L15.8506 6.24639C15.8503 6.24621 15.85 6.24602 15.8497 6.24584C15.325 5.91808 14.6652 5.91805 14.1405 6.24575Z" fill="#1F1E1C"/>
<path d="M22.1029 19.6325H7.89706C7.52846 19.6325 7.2296 19.3325 7.2296 18.9625V9.78255C7.2296 9.41255 7.52846 9.11255 7.89706 9.11255H22.1029C22.4715 9.11255 22.7704 9.41255 22.7704 9.78255V18.9625C22.7704 19.3325 22.4715 19.6325 22.1029 19.6325Z" fill="#FFFEFA"/>
<path fill-rule="evenodd" clip-rule="evenodd" d="M7.89706 9.61255C7.80639 9.61255 7.7296 9.6869 7.7296 9.78255V18.9625C7.7296 19.0582 7.80639 19.1325 7.89706 19.1325H22.1029C22.1936 19.1325 22.2704 19.0582 22.2704 18.9625V9.78255C22.2704 9.6869 22.1936 9.61255 22.1029 9.61255H7.89706ZM6.7296 9.78255C6.7296 9.1382 7.25053 8.61255 7.89706 8.61255H22.1029C22.7495 8.61255 23.2704 9.1382 23.2704 9.78255V18.9625C23.2704 19.6069 22.7495 20.1325 22.1029 20.1325H7.89706C7.25053 20.1325 6.7296 19.6069 6.7296 18.9625V9.78255Z" fill="#1F1E1C"/>
<path d="M25.5 11.7524L16.1157 17.6724C15.4284 18.1024 14.5617 18.1024 13.8743 17.6724L4.5 11.7524V24.3824H25.5V11.7524Z" fill="#FFFEFA"/>
<path fill-rule="evenodd" clip-rule="evenodd" d="M4 11.7524H5V22.4024C5 23.2944 5.71061 24.0024 6.56214 24.0024H23.4379C24.2894 24.0024 25 23.2944 25 22.4024V11.7524H26V22.4024C26 23.8305 24.8577 25.0024 23.4379 25.0024H6.56214C5.14233 25.0024 4 23.8305 4 22.4024V11.7524Z" fill="#1F1E1C"/>
<path fill-rule="evenodd" clip-rule="evenodd" d="M15.8506 17.2486L25.2332 11.3296L25.7668 12.1754L16.3825 18.0954L16.3809 18.0964C15.5313 18.6278 14.4587 18.6278 13.6091 18.0964L13.6073 18.0952L4.23302 12.1752L4.76698 11.3297L14.1395 17.2486C14.1397 17.2488 14.14 17.2489 14.1403 17.2491C14.6651 17.577 15.3251 17.5769 15.8499 17.249C15.8501 17.2489 15.8504 17.2487 15.8506 17.2486Z" fill="#1F1E1C"/>
<path d="M25.5 22.4324L16.1157 16.5124C15.4284 16.0824 14.5617 16.0824 13.8743 16.5124L4.5 22.4324C4.5 23.5724 5.43643 24.5024 6.59203 24.5024H23.4179C24.5636 24.5024 25.5 23.5724 25.5 22.4324Z" fill="#FFFEFA"/>
<path fill-rule="evenodd" clip-rule="evenodd" d="M13.6091 16.0885C14.4587 15.5571 15.5313 15.5571 16.3809 16.0885L16.3825 16.0896L26 22.1567V22.4324C26 23.8515 24.8368 25.0024 23.4179 25.0024H6.59203C5.16475 25.0024 4 23.853 4 22.4324V22.1568L13.6091 16.0885ZM14.1403 16.9358C14.14 16.936 14.1397 16.9362 14.1395 16.9363L5.02219 22.694C5.14855 23.4314 5.79965 24.0024 6.59203 24.0024H23.4179C24.2001 24.0024 24.8514 23.4325 24.9778 22.6942L15.8506 16.9363C15.8503 16.9362 15.8508 16.9365 15.8506 16.9363C15.3258 16.6084 14.6651 16.608 14.1403 16.9358Z" fill="#1F1E1C"/>
<path d="M20.4194 13.3125H17.2215C16.9924 13.3125 16.8131 13.1225 16.8131 12.9025V11.3625C16.8131 11.1325 17.0024 10.9525 17.2215 10.9525H20.4194C20.6485 10.9525 20.8278 11.1425 20.8278 11.3625V12.8925C20.8378 13.1225 20.6485 13.3125 20.4194 13.3125Z" fill="#1F1E1C"/>
</svg>
