<svg width="261" height="212" viewBox="0 0 261 212" fill="none" xmlns="http://www.w3.org/2000/svg">
<path d="M184.57 143.831C191.343 143.831 196.837 138.322 196.837 131.531V67.5975C196.837 48.6618 181.385 33.1689 162.5 33.1689C143.615 33.1689 128.163 48.6618 128.163 67.5975V131.54C128.163 138.331 133.657 143.84 140.43 143.84H184.57V143.831Z" fill="#008169"/>
<path d="M162.5 102.026C181.462 102.026 196.837 86.6107 196.837 67.5975C196.837 48.6618 181.385 33.1689 162.5 33.1689C143.615 33.1689 128.163 48.6618 128.163 67.5975V101.897L162.5 102.026Z" fill="#52E7FF"/>
<path d="M170.475 34.1243C167.917 33.5046 165.247 33.1689 162.5 33.1689C143.615 33.1689 128.163 48.6618 128.163 67.5975V131.54C128.163 138.331 133.657 143.831 140.43 143.831H144.113V67.5975C144.104 51.4161 155.401 37.7479 170.475 34.1243Z" fill="#FFD24A"/>
<path fill-rule="evenodd" clip-rule="evenodd" d="M184.57 146C192.528 146 199 139.51 199 131.54V67.5976C199 58.7476 196.183 51.0349 191.322 45.1637C184.639 36.5499 174.205 31 162.5 31C142.37 31 126 47.4138 126 67.5976V131.54C126 139.51 132.472 146 140.421 146H184.57ZM146.267 141.671V104.195H162.5C176.409 104.195 188.523 96.3585 194.682 84.8565V131.54C194.682 137.126 190.15 141.671 184.579 141.671H146.267ZM141.949 141.671H140.43C134.859 141.671 130.326 137.126 130.326 131.54V67.5976C130.326 66.9697 130.344 66.3459 130.38 65.7268C131.322 49.2866 144.598 36.1105 161.045 35.3723C160.972 35.4447 160.899 35.5186 160.827 35.5939C156.67 37.9057 152.957 41.0332 149.958 44.7972C144.818 51.2184 141.98 59.2661 141.95 67.4664C141.909 67.5528 141.888 67.5976 141.888 67.5976V104.195H141.949V141.671ZM172.058 36.7905C185.148 40.8805 194.674 53.1424 194.674 67.5976C194.674 85.3885 180.244 99.8571 162.5 99.8571L146.413 99.7969V67.5976C146.413 62.6456 147.66 57.951 149.458 53.7542C153.521 45.335 161.149 38.7567 170.508 36.3489C170.516 36.351 170.524 36.3531 170.532 36.3552C171.046 36.488 171.555 36.6332 172.058 36.7905Z" fill="#1F1E1C"/>
<path d="M110.984 180.17C110.639 180.504 110.225 180.675 109.751 180.675C109.276 180.675 108.862 180.504 108.517 180.17C108.172 179.836 108 179.425 108 178.937V165.312C108 164.764 108.198 164.293 108.586 163.899C108.974 163.506 109.449 163.317 110.001 163.317H113.735C118.296 163.317 120.582 165.133 120.582 168.763C120.582 170.031 120.271 171.11 119.659 171.992C119.047 172.874 118.245 173.516 117.253 173.918C116.261 174.312 115.123 174.518 113.829 174.518H111.734C111.579 174.518 111.501 174.595 111.501 174.749V178.937C111.501 179.425 111.329 179.836 110.984 180.17ZM111.501 171.538C111.501 171.692 111.579 171.769 111.734 171.769H113.605C115.968 171.769 117.158 170.767 117.158 168.772C117.158 167.796 116.856 167.102 116.261 166.691C115.658 166.28 114.735 166.075 113.493 166.075H111.734C111.579 166.075 111.501 166.152 111.501 166.306V171.538Z" fill="#1F1E1C"/>
<path d="M136.819 178.542C135.379 180.178 133.499 180.991 131.162 180.991C128.826 180.991 126.937 180.178 125.505 178.542C124.065 176.907 123.35 174.706 123.35 171.923C123.35 169.14 124.065 166.965 125.497 165.372C126.92 163.796 128.808 163 131.162 163C133.517 163 135.405 163.796 136.837 165.381C138.268 166.965 138.984 169.148 138.984 171.931C138.984 174.715 138.259 176.915 136.819 178.542ZM128.067 176.35C128.834 177.446 129.869 178.003 131.171 178.003C132.473 178.003 133.508 177.455 134.275 176.35C135.043 175.254 135.431 173.781 135.431 171.931C135.431 170.082 135.043 168.635 134.275 167.573C133.508 166.511 132.473 165.98 131.162 165.98C129.86 165.98 128.826 166.511 128.058 167.573C127.299 168.635 126.92 170.09 126.92 171.931C126.92 173.773 127.299 175.245 128.067 176.35Z" fill="#1F1E1C"/>
<path d="M148.073 181C146.21 181 144.503 180.478 142.933 179.441C142.58 179.21 142.381 178.876 142.33 178.431V178.268C142.33 177.9 142.459 177.575 142.718 177.284C142.976 176.967 143.321 176.778 143.753 176.735C143.83 176.718 143.899 176.71 143.96 176.71C144.313 176.71 144.641 176.813 144.951 177.01C146.029 177.669 147.098 177.994 148.159 177.994C149.047 177.994 149.737 177.814 150.212 177.463C150.686 177.112 150.927 176.624 150.927 175.999C150.927 175.434 150.746 175.014 150.375 174.732C150.005 174.449 149.375 174.115 148.487 173.738C148.409 173.713 148.357 173.687 148.323 173.67L145.969 172.685C144.951 172.257 144.115 171.666 143.442 170.895C142.778 170.133 142.442 169.174 142.442 168.01C142.442 166.571 143.011 165.381 144.149 164.43C145.288 163.48 146.736 163 148.487 163C150.099 163 151.565 163.445 152.893 164.327C153.221 164.541 153.394 164.858 153.419 165.269V165.381C153.419 165.732 153.307 166.049 153.074 166.323C152.842 166.614 152.531 166.785 152.126 166.828C152.048 166.845 151.971 166.853 151.893 166.853C151.583 166.853 151.289 166.776 151.013 166.622C150.229 166.194 149.384 165.98 148.478 165.98C147.711 165.98 147.098 166.143 146.633 166.46C146.176 166.776 145.943 167.23 145.943 167.813C145.943 168.104 146.003 168.352 146.124 168.566C146.245 168.78 146.452 168.977 146.736 169.166C147.021 169.345 147.271 169.491 147.495 169.602C147.719 169.705 148.064 169.842 148.521 170.013C148.599 170.048 148.651 170.065 148.685 170.082L150.97 171.041C152.126 171.512 152.997 172.12 153.601 172.865C154.204 173.601 154.497 174.569 154.497 175.759C154.497 177.241 153.92 178.482 152.755 179.493C151.6 180.495 150.039 181 148.073 181Z" fill="#1F1E1C"/>
<path d="M164.035 180.17C163.699 180.504 163.285 180.675 162.802 180.675C162.319 180.675 161.905 180.504 161.569 180.17C161.232 179.836 161.06 179.425 161.06 178.937V166.434C161.06 166.28 160.982 166.203 160.827 166.203H157.602C157.205 166.203 156.86 166.066 156.576 165.783C156.291 165.501 156.153 165.158 156.153 164.764C156.153 164.37 156.291 164.028 156.576 163.745C156.86 163.463 157.205 163.317 157.602 163.317H168.045C168.441 163.317 168.786 163.463 169.071 163.745C169.355 164.028 169.493 164.37 169.493 164.764C169.493 165.158 169.355 165.501 169.071 165.783C168.786 166.066 168.441 166.203 168.045 166.203H164.768C164.613 166.203 164.535 166.28 164.535 166.434V178.937C164.544 179.425 164.371 179.836 164.035 180.17Z" fill="#1F1E1C"/>
<path d="M184.74 178.542C183.299 180.178 181.42 180.991 179.083 180.991C176.746 180.991 174.857 180.178 173.426 178.542C171.986 176.907 171.27 174.706 171.27 171.923C171.27 169.14 171.986 166.965 173.417 165.372C174.84 163.796 176.728 163 179.083 163C181.437 163 183.325 163.796 184.757 165.381C186.188 166.965 186.904 169.148 186.904 171.931C186.904 174.715 186.18 176.915 184.74 178.542ZM175.995 176.35C176.763 177.446 177.798 178.003 179.1 178.003C180.402 178.003 181.437 177.455 182.204 176.35C182.972 175.254 183.36 173.781 183.36 171.931C183.36 170.082 182.972 168.635 182.204 167.573C181.437 166.511 180.402 165.98 179.091 165.98C177.789 165.98 176.754 166.511 175.987 167.573C175.228 168.635 174.849 170.09 174.849 171.931C174.84 173.773 175.219 175.245 175.995 176.35Z" fill="#1F1E1C"/>
<path d="M203.228 179.005C203.332 179.185 203.392 179.373 203.392 179.553C203.392 179.733 203.34 179.93 203.228 180.127C203.013 180.495 202.685 180.675 202.236 180.675C201.641 180.675 201.081 180.521 200.564 180.212C200.046 179.904 199.649 179.493 199.373 178.979L196.821 174.312C196.743 174.175 196.631 174.107 196.476 174.107H194.519C194.363 174.107 194.286 174.184 194.286 174.338V178.937C194.286 179.425 194.113 179.836 193.768 180.17C193.423 180.504 193.009 180.675 192.535 180.675C192.061 180.675 191.647 180.504 191.302 180.17C190.957 179.836 190.785 179.425 190.785 178.937V165.312C190.785 164.764 190.983 164.293 191.371 163.899C191.768 163.514 192.233 163.317 192.794 163.317H196.873C201.253 163.317 203.444 165.073 203.444 168.584C203.444 170.964 202.409 172.6 200.331 173.482C200.193 173.542 200.158 173.636 200.236 173.756L203.228 179.005ZM194.519 166.066C194.363 166.066 194.286 166.143 194.286 166.297V171.127C194.286 171.281 194.363 171.358 194.519 171.358H196.545C197.666 171.358 198.528 171.127 199.123 170.656C199.727 170.193 200.02 169.5 200.02 168.584C200.02 167.667 199.736 167.016 199.158 166.64C198.58 166.254 197.709 166.066 196.545 166.066H194.519Z" fill="#1F1E1C"/>
<path d="M212.869 180.17C212.524 180.504 212.11 180.675 211.636 180.675C211.162 180.675 210.748 180.504 210.403 180.17C210.058 179.836 209.885 179.425 209.885 178.937V174.544C209.885 174.389 209.851 174.244 209.791 174.107L205.436 164.996C205.358 164.824 205.324 164.662 205.324 164.49C205.324 164.276 205.384 164.071 205.505 163.874C205.738 163.506 206.065 163.326 206.496 163.326C207.066 163.326 207.583 163.48 208.04 163.797C208.497 164.105 208.842 164.525 209.058 165.047L210.118 167.565C210.705 169.106 211.196 170.373 211.593 171.367C211.61 171.384 211.627 171.392 211.662 171.392C211.696 171.392 211.714 171.384 211.731 171.367C212.697 169.003 213.214 167.736 213.274 167.565L214.335 165.004C214.533 164.499 214.861 164.096 215.327 163.788C215.792 163.48 216.284 163.326 216.827 163.326C217.258 163.326 217.586 163.506 217.819 163.857C217.94 164.054 218 164.259 218 164.473C218 164.627 217.957 164.79 217.862 164.953L213.481 174.107C213.421 174.244 213.386 174.389 213.386 174.544V178.937C213.386 179.425 213.214 179.836 212.869 180.17Z" fill="#1F1E1C"/>
</svg>
