<svg width="379" height="106" viewBox="0 0 379 106" fill="none" xmlns="http://www.w3.org/2000/svg">
<path d="M252.844 15.0002H61.1667C60.4681 15.0002 59.7778 15.0002 59.0809 15.004C58.4976 15.0078 57.9189 15.0189 57.33 15.0282C56.0506 15.0432 54.7742 15.1554 53.5119 15.3639C52.2514 15.577 51.0304 15.9786 49.8901 16.5552C48.7512 17.1367 47.7106 17.8924 46.806 18.7947C45.8967 19.6944 45.1387 20.7345 44.5611 21.8747C43.982 23.0127 43.5804 24.2322 43.3703 25.491C43.1582 26.7483 43.044 28.02 43.0289 29.2948C43.0112 29.8774 43.0093 30.4618 43 31.0444V74.9614C43.0093 75.5513 43.0112 76.1229 43.0289 76.713C43.044 77.9878 43.1582 79.2594 43.3703 80.5166C43.5799 81.7762 43.9815 82.9963 44.5611 84.1348C45.1384 85.2713 45.8965 86.3071 46.806 87.2019C47.7072 88.1082 48.7485 88.8644 49.8901 89.4414C51.0303 90.0196 52.2513 90.4236 53.5119 90.64C54.7744 90.8468 56.0507 90.9591 57.33 90.9759C57.9189 90.9888 58.4976 90.9962 59.0809 90.9962C59.7777 91 60.4681 91 61.1667 91H252.844C253.528 91 254.224 91 254.909 90.9962C255.489 90.9962 256.085 90.9888 256.665 90.9759C257.942 90.96 259.216 90.8477 260.476 90.64C261.741 90.4221 262.966 90.0182 264.112 89.4414C265.252 88.864 266.293 88.1079 267.193 87.2019C268.1 86.3036 268.86 85.2686 269.444 84.1348C270.02 82.9955 270.418 81.7754 270.624 80.5166C270.837 79.2592 270.955 77.9879 270.978 76.713C270.985 76.1229 270.985 75.5513 270.985 74.9614C271 74.2711 271 73.5847 271 72.8832V33.1188C271 32.423 271 31.7328 270.985 31.0444C270.985 30.4618 270.985 29.8774 270.978 29.2947C270.955 28.0198 270.837 26.7484 270.624 25.4909C270.417 24.2329 270.019 23.0135 269.444 21.8747C268.268 19.5891 266.403 17.7287 264.112 16.555C262.966 15.9798 261.741 15.5783 260.476 15.3638C259.216 15.1543 257.942 15.0421 256.665 15.0279C256.085 15.0186 255.489 15.0075 254.909 15.0038C254.224 15 253.528 15 252.844 15V15.0002Z" fill="#A6A6A6"/>
<path d="M59.0902 89.3374C58.5097 89.3374 57.9432 89.33 57.3672 89.3171C56.174 89.3016 54.9837 89.198 53.8059 89.0072C52.7076 88.8186 51.6437 88.4677 50.6492 87.9662C49.6639 87.4688 48.7651 86.8167 47.9875 86.0347C47.1985 85.2619 46.5417 84.3656 46.0431 83.3813C45.5389 82.3906 45.19 81.3288 45.0085 80.2327C44.8124 79.0549 44.7064 77.864 44.6912 76.6702C44.6791 76.2695 44.6633 74.9353 44.6633 74.9353V31.0444C44.6633 31.0444 44.6802 29.7307 44.6913 29.3447C44.7058 28.1528 44.8113 26.9638 45.0067 25.7878C45.1886 24.6887 45.5377 23.6238 46.0422 22.6298C46.539 21.6462 47.1922 20.7493 47.9764 19.9737C48.7597 19.1908 49.6613 18.5353 50.6483 18.0311C51.6405 17.5311 52.7024 17.1827 53.7984 16.9976C54.9801 16.8048 56.1746 16.7007 57.3719 16.6859L59.0911 16.6627H254.9L256.639 16.6868C257.826 16.7008 259.009 16.8041 260.18 16.9957C261.287 17.1832 262.36 17.534 263.364 18.0366C265.341 19.0528 266.95 20.6606 267.965 22.6345C268.462 23.6215 268.805 24.6778 268.985 25.7674C269.183 26.953 269.293 28.1514 269.316 29.3531C269.322 29.8912 269.322 30.4692 269.322 31.0444C269.337 31.7569 269.337 32.435 269.337 33.1188V72.8831C269.337 73.5734 269.337 74.2469 269.322 74.926C269.322 75.5439 269.322 76.1099 269.314 76.6924C269.292 77.8726 269.183 79.0497 268.988 80.214C268.811 81.318 268.464 82.3882 267.96 83.387C267.457 84.3606 266.804 85.2491 266.025 86.0198C265.246 86.806 264.346 87.462 263.358 87.9626C262.358 88.468 261.286 88.8201 260.18 89.0072C259.002 89.199 257.812 89.3026 256.619 89.3171C256.061 89.33 255.476 89.3374 254.909 89.3374L252.843 89.3412L59.0902 89.3374Z" fill="black"/>
<path d="M90.1931 53.5713C90.2136 51.9855 90.636 50.4305 91.421 49.0512C92.2061 47.6719 93.3282 46.513 94.6831 45.6824C93.8224 44.4566 92.6869 43.4478 91.3669 42.7362C90.0468 42.0245 88.5785 41.6296 87.0786 41.5828C83.8791 41.2479 80.7773 43.492 79.1469 43.492C77.4849 43.492 74.9747 41.6161 72.2715 41.6716C70.523 41.7279 68.819 42.2349 67.3255 43.1432C65.8319 44.0515 64.5998 45.3301 63.7491 46.8545C60.0642 53.2165 62.8128 62.5664 66.3426 67.709C68.1087 70.2271 70.1727 73.04 72.8734 72.9402C75.5162 72.8309 76.5033 71.2597 79.6934 71.2597C82.8539 71.2597 83.7799 72.9402 86.5354 72.8768C89.3713 72.8309 91.158 70.3475 92.8621 67.8055C94.131 66.0112 95.1074 64.0281 95.7552 61.9297C94.1076 61.2348 92.7017 60.0717 91.7126 58.5853C90.7235 57.099 90.195 55.3552 90.1931 53.5713V53.5713Z" fill="white"/>
<path d="M84.9885 38.2008C86.5347 36.3498 87.2965 33.9707 87.112 31.5687C84.7497 31.8161 82.5676 32.9419 81.0005 34.7219C80.2343 35.5915 79.6475 36.6031 79.2736 37.699C78.8997 38.7948 78.746 39.9534 78.8214 41.1085C80.003 41.1207 81.1719 40.8653 82.2401 40.3616C83.3084 39.8579 84.2481 39.1191 84.9885 38.2008Z" fill="white"/>
<path d="M123.6 66.5653H114.581L112.415 72.9426H108.595L117.138 49.3484H121.107L129.649 72.9426H125.764L123.6 66.5653ZM115.515 63.6226H122.664L119.14 53.2728H119.041L115.515 63.6226Z" fill="white"/>
<path d="M148.098 64.3426C148.098 69.6882 145.229 73.1226 140.899 73.1226C139.802 73.1798 138.711 72.9279 137.751 72.3956C136.791 71.8634 136.001 71.0723 135.471 70.113H135.389V78.6333H131.848V55.7407H135.276V58.6018H135.341C135.895 57.6471 136.699 56.8601 137.666 56.3246C138.633 55.7891 139.728 55.5251 140.834 55.5607C145.212 55.5607 148.098 59.0118 148.098 64.3426ZM144.458 64.3426C144.458 60.8599 142.653 58.5702 139.9 58.5702C137.194 58.5702 135.374 60.9081 135.374 64.3426C135.374 67.8086 137.194 70.1298 139.9 70.1298C142.653 70.1298 144.458 67.8568 144.458 64.3426Z" fill="white"/>
<path d="M167.084 64.3426C167.084 69.6882 164.215 73.1226 159.885 73.1226C158.788 73.1798 157.698 72.9279 156.738 72.3956C155.778 71.8634 154.988 71.0723 154.458 70.113H154.376V78.6333H150.835V55.7406H154.262V58.6018H154.327C154.882 57.6471 155.685 56.8601 156.652 56.3246C157.62 55.7891 158.714 55.5251 159.82 55.5607C164.198 55.5607 167.084 59.0118 167.084 64.3426ZM163.445 64.3426C163.445 60.8599 161.64 58.5702 158.886 58.5702C156.18 58.5702 154.361 60.9081 154.361 64.3426C154.361 67.8086 156.18 70.1298 158.886 70.1298C161.64 70.1298 163.445 67.8568 163.445 64.3426H163.445Z" fill="white"/>
<path d="M179.632 66.3687C179.895 68.7084 182.174 70.2447 185.289 70.2447C188.273 70.2447 190.421 68.7084 190.421 66.5987C190.421 64.7673 189.126 63.6708 186.059 62.9193L182.993 62.1827C178.648 61.1362 176.631 59.11 176.631 55.8221C176.631 51.7513 180.189 48.9551 185.241 48.9551C190.24 48.9551 193.668 51.7513 193.783 55.8221H190.209C189.995 53.4676 188.043 52.0463 185.19 52.0463C182.338 52.0463 180.386 53.4843 180.386 55.5772C180.386 57.2453 181.633 58.2268 184.682 58.9782L187.289 59.6165C192.144 60.7613 194.161 62.7059 194.161 66.157C194.161 70.5712 190.635 73.3358 185.027 73.3358C179.779 73.3358 176.237 70.6361 176.008 66.3685L179.632 66.3687Z" fill="white"/>
<path d="M201.802 51.6697V55.7406H205.083V58.5367H201.802V68.02C201.802 69.4932 202.459 70.1798 203.901 70.1798C204.291 70.173 204.679 70.1457 205.066 70.0981V72.8776C204.418 72.9984 203.759 73.0531 203.099 73.0408C199.607 73.0408 198.245 71.7327 198.245 68.3966V58.5367H195.737V55.7406H198.245V51.6697H201.802Z" fill="white"/>
<path d="M206.983 64.3425C206.983 58.9301 210.179 55.5291 215.164 55.5291C220.166 55.5291 223.347 58.93 223.347 64.3425C223.347 69.7697 220.182 73.1559 215.164 73.1559C210.148 73.1559 206.983 69.7697 206.983 64.3425ZM219.739 64.3425C219.739 60.6297 218.033 58.4384 215.164 58.4384C212.295 58.4384 210.591 60.6464 210.591 64.3425C210.591 68.0701 212.295 70.2447 215.164 70.2447C218.033 70.2447 219.739 68.0701 219.739 64.3425H219.739Z" fill="white"/>
<path d="M226.267 55.7406H229.644V58.6684H229.726C229.954 57.754 230.491 56.9459 231.247 56.3799C232.003 55.8139 232.931 55.5246 233.875 55.5605C234.283 55.5591 234.69 55.6033 235.088 55.6923V58.995C234.573 58.838 234.036 58.766 233.497 58.7816C232.983 58.7608 232.47 58.8513 231.994 59.0468C231.518 59.2422 231.09 59.5381 230.739 59.9141C230.389 60.2901 230.124 60.7373 229.963 61.225C229.802 61.7126 229.749 62.2293 229.807 62.7393V72.9425H226.267L226.267 55.7406Z" fill="white"/>
<path d="M251.414 67.8901C250.937 71.0129 247.888 73.1559 243.986 73.1559C238.968 73.1559 235.853 69.8031 235.853 64.4241C235.853 59.0285 238.984 55.5291 243.837 55.5291C248.61 55.5291 251.611 58.7984 251.611 64.0141V65.2238H239.427V65.4372C239.371 66.0703 239.45 66.7081 239.66 67.3081C239.87 67.9082 240.206 68.4569 240.645 68.9178C241.084 69.3786 241.616 69.7411 242.206 69.981C242.796 70.221 243.431 70.333 244.068 70.3096C244.904 70.3878 245.744 70.1946 246.462 69.7586C247.18 69.3227 247.737 68.6674 248.051 67.8901L251.414 67.8901ZM239.444 62.7561H248.068C248.1 62.1868 248.013 61.6172 247.814 61.0829C247.615 60.5486 247.306 60.0612 246.909 59.6512C246.512 59.2413 246.034 58.9176 245.505 58.7006C244.977 58.4836 244.409 58.3779 243.837 58.3902C243.26 58.3867 242.689 58.4972 242.155 58.7152C241.622 58.9332 241.137 59.2545 240.728 59.6604C240.32 60.0663 239.996 60.5488 239.776 61.0801C239.555 61.6115 239.442 62.1811 239.444 62.7561V62.7561Z" fill="white"/>
<path d="M115.072 31.589C115.814 31.5359 116.559 31.6477 117.253 31.9164C117.946 32.1851 118.572 32.604 119.083 33.1429C119.595 33.6818 119.981 34.3272 120.212 35.0327C120.443 35.7381 120.515 36.4859 120.421 37.2222C120.421 40.844 118.458 42.9259 115.072 42.9259H110.965V31.589H115.072ZM112.731 41.3226H114.874C115.405 41.3543 115.936 41.2675 116.428 41.0688C116.921 40.87 117.363 40.5642 117.722 40.1736C118.081 39.7831 118.348 39.3175 118.504 38.811C118.66 38.3044 118.701 37.7695 118.624 37.2453C118.695 36.7231 118.651 36.1915 118.492 35.6887C118.334 35.1858 118.066 34.7241 117.708 34.3366C117.349 33.9492 116.909 33.6455 116.42 33.4475C115.93 33.2494 115.402 33.1619 114.874 33.1911H112.731V41.3226Z" fill="white"/>
<path d="M122.416 38.6444C122.362 38.0821 122.426 37.5148 122.605 36.9789C122.784 36.443 123.073 35.9502 123.454 35.5323C123.835 35.1143 124.299 34.7804 124.817 34.5518C125.335 34.3233 125.895 34.2053 126.462 34.2053C127.028 34.2053 127.588 34.3233 128.106 34.5518C128.624 34.7804 129.088 35.1143 129.469 35.5323C129.85 35.9502 130.14 36.443 130.318 36.9789C130.497 37.5148 130.562 38.0821 130.508 38.6444C130.563 39.2072 130.499 39.7752 130.321 40.312C130.142 40.8488 129.853 41.3425 129.472 41.7613C129.091 42.1801 128.627 42.5147 128.108 42.7437C127.59 42.9727 127.029 43.0911 126.462 43.0911C125.895 43.0911 125.334 42.9727 124.815 42.7437C124.297 42.5147 123.832 42.1801 123.451 41.7613C123.07 41.3425 122.781 40.8488 122.603 40.312C122.424 39.7752 122.361 39.2072 122.416 38.6444V38.6444ZM128.766 38.6444C128.766 36.7898 127.931 35.7053 126.464 35.7053C124.993 35.7053 124.165 36.7898 124.165 38.6444C124.165 40.5138 124.993 41.5899 126.464 41.5899C127.931 41.5899 128.766 40.5063 128.766 38.6444H128.766Z" fill="white"/>
<path d="M141.264 42.9258H139.508L137.735 36.6246H137.601L135.835 42.9258H134.095L131.73 34.3702H133.448L134.985 40.8986H135.111L136.875 34.3702H138.499L140.263 40.8986H140.397L141.927 34.3702H143.62L141.264 42.9258Z" fill="white"/>
<path d="M145.609 34.3703H147.239V35.7294H147.366C147.58 35.2413 147.942 34.8321 148.401 34.5588C148.86 34.2856 149.393 34.162 149.926 34.2051C150.343 34.1738 150.763 34.2366 151.152 34.3888C151.542 34.541 151.893 34.7787 152.178 35.0843C152.463 35.3899 152.676 35.7555 152.8 36.1542C152.924 36.5529 152.957 36.9743 152.896 37.3872V42.9257H151.202V37.8113C151.202 36.4364 150.603 35.7526 149.351 35.7526C149.068 35.7394 148.785 35.7875 148.522 35.8936C148.258 35.9997 148.022 36.1612 147.827 36.3672C147.632 36.5731 147.485 36.8186 147.394 37.0867C147.304 37.3549 147.272 37.6394 147.302 37.9207V42.9258H145.609L145.609 34.3703Z" fill="white"/>
<path d="M155.594 31.0304H157.287V42.9258H155.594V31.0304Z" fill="white"/>
<path d="M159.64 38.6443C159.587 38.0821 159.651 37.5148 159.83 36.9788C160.009 36.4429 160.298 35.9501 160.679 35.5321C161.06 35.1141 161.524 34.7802 162.042 34.5517C162.56 34.3231 163.121 34.2051 163.687 34.2051C164.253 34.2051 164.814 34.3231 165.332 34.5517C165.85 34.7802 166.314 35.1141 166.695 35.5321C167.076 35.9501 167.365 36.4429 167.544 36.9788C167.723 37.5148 167.787 38.0821 167.733 38.6443C167.788 39.2072 167.725 39.7753 167.546 40.312C167.368 40.8488 167.079 41.3425 166.698 41.7613C166.317 42.18 165.852 42.5147 165.333 42.7437C164.815 42.9727 164.254 43.091 163.687 43.091C163.12 43.091 162.559 42.9727 162.041 42.7437C161.522 42.5147 161.057 42.18 160.676 41.7613C160.295 41.3425 160.006 40.8488 159.828 40.312C159.649 39.7753 159.586 39.2072 159.64 38.6443V38.6443ZM165.991 38.6443C165.991 36.7898 165.155 35.7053 163.689 35.7053C162.217 35.7053 161.39 36.7898 161.39 38.6444C161.39 40.5137 162.218 41.5899 163.689 41.5899C165.155 41.5899 165.991 40.5063 165.991 38.6443H165.991Z" fill="white"/>
<path d="M169.516 40.5063C169.516 38.9662 170.666 38.0784 172.707 37.9522L175.031 37.8186V37.0802C175.031 36.1766 174.432 35.6663 173.274 35.6663C172.329 35.6663 171.674 36.0124 171.486 36.6172H169.847C170.02 35.1477 171.406 34.2051 173.353 34.2051C175.504 34.2051 176.717 35.2729 176.717 37.0802V42.9258H175.087V41.7235H174.953C174.681 42.1548 174.299 42.5063 173.846 42.7423C173.394 42.9783 172.886 43.0903 172.376 43.0668C172.016 43.1041 171.652 43.0658 171.307 42.9543C170.963 42.8428 170.646 42.6605 170.376 42.4193C170.107 42.178 169.891 41.8831 169.743 41.5537C169.595 41.2242 169.517 40.8674 169.516 40.5063V40.5063ZM175.031 39.7752V39.0599L172.936 39.1935C171.754 39.2724 171.218 39.6732 171.218 40.4274C171.218 41.1974 171.888 41.6455 172.809 41.6455C173.079 41.6728 173.352 41.6456 173.611 41.5656C173.87 41.4856 174.11 41.3545 174.318 41.18C174.525 41.0055 174.695 40.7912 174.817 40.5499C174.94 40.3085 175.013 40.0451 175.031 39.7752V39.7752Z" fill="white"/>
<path d="M178.942 38.6443C178.942 35.9409 180.336 34.2283 182.503 34.2283C183.04 34.2037 183.572 34.3317 184.038 34.5975C184.504 34.8633 184.884 35.2559 185.134 35.7293H185.261V31.0304H186.954V42.9258H185.332V41.574H185.198C184.928 42.0443 184.534 42.4319 184.059 42.6951C183.584 42.9582 183.046 43.0867 182.503 43.0668C180.321 43.0669 178.942 41.3542 178.942 38.6443ZM180.691 38.6443C180.691 40.459 181.549 41.5509 182.984 41.5509C184.411 41.5509 185.293 40.4432 185.293 38.6517C185.293 36.8686 184.401 35.7452 182.984 35.7452C181.558 35.7452 180.691 36.8445 180.691 38.6443H180.691Z" fill="white"/>
<path d="M193.96 38.6444C193.906 38.0821 193.97 37.5148 194.149 36.9789C194.328 36.443 194.617 35.9502 194.998 35.5323C195.379 35.1143 195.843 34.7804 196.361 34.5518C196.879 34.3233 197.439 34.2053 198.006 34.2053C198.572 34.2053 199.132 34.3233 199.65 34.5518C200.168 34.7804 200.632 35.1143 201.013 35.5323C201.394 35.9502 201.683 36.443 201.862 36.9789C202.041 37.5148 202.106 38.0821 202.052 38.6444C202.107 39.2072 202.043 39.7752 201.865 40.312C201.686 40.8488 201.397 41.3425 201.016 41.7613C200.635 42.1801 200.17 42.5147 199.652 42.7437C199.133 42.9727 198.573 43.0911 198.006 43.0911C197.439 43.0911 196.878 42.9727 196.359 42.7437C195.841 42.5147 195.376 42.1801 194.995 41.7613C194.614 41.3425 194.325 40.8488 194.147 40.312C193.968 39.7752 193.905 39.2072 193.96 38.6444V38.6444ZM200.31 38.6444C200.31 36.7898 199.475 35.7053 198.008 35.7053C196.537 35.7053 195.709 36.7898 195.709 38.6444C195.709 40.5138 196.537 41.5899 198.008 41.5899C199.475 41.5899 200.31 40.5063 200.31 38.6444Z" fill="white"/>
<path d="M204.324 34.3703H205.954V35.7294H206.08C206.295 35.2413 206.657 34.8321 207.116 34.5588C207.575 34.2856 208.108 34.162 208.641 34.2051C209.058 34.1738 209.477 34.2366 209.867 34.3888C210.257 34.541 210.607 34.7787 210.892 35.0843C211.178 35.3899 211.39 35.7555 211.515 36.1542C211.639 36.5529 211.671 36.9743 211.61 37.3872V42.9257H209.917V37.8113C209.917 36.4364 209.318 35.7526 208.066 35.7526C207.782 35.7394 207.499 35.7875 207.236 35.8936C206.973 35.9997 206.736 36.1612 206.542 36.3672C206.347 36.5731 206.199 36.8186 206.109 37.0867C206.018 37.3549 205.987 37.6394 206.017 37.9207V42.9258H204.324V34.3703Z" fill="white"/>
<path d="M221.178 32.2402V34.4092H223.037V35.8314H221.178V40.2307C221.178 41.1269 221.548 41.5193 222.391 41.5193C222.607 41.5187 222.822 41.5056 223.037 41.4804V42.8868C222.732 42.9411 222.424 42.9699 222.115 42.9731C220.232 42.9731 219.483 42.3125 219.483 40.663V35.8313H218.121V34.4091H219.483V32.2402H221.178Z" fill="white"/>
<path d="M225.349 31.0304H227.028V35.7451H227.162C227.387 35.2524 227.759 34.8409 228.227 34.5666C228.695 34.2924 229.237 34.1687 229.778 34.2125C230.193 34.19 230.608 34.2591 230.994 34.415C231.379 34.5709 231.725 34.8097 232.007 35.1143C232.29 35.4189 232.501 35.7819 232.626 36.1774C232.752 36.5729 232.788 36.991 232.732 37.4021V42.9258H231.038V37.8186C231.038 36.452 230.399 35.76 229.203 35.76C228.912 35.7362 228.619 35.776 228.345 35.8769C228.071 35.9777 227.823 36.1369 227.617 36.3435C227.411 36.5501 227.253 36.7991 227.154 37.0729C227.055 37.3468 227.017 37.639 227.043 37.929V42.9257H225.349L225.349 31.0304Z" fill="white"/>
<path d="M242.605 40.6157C242.375 41.3976 241.877 42.0739 241.197 42.5264C240.517 42.9789 239.7 43.1787 238.888 43.0908C238.322 43.1057 237.761 42.9978 237.241 42.7745C236.722 42.5511 236.258 42.2179 235.881 41.7977C235.504 41.3775 235.223 40.8806 235.058 40.3413C234.892 39.8021 234.847 39.2334 234.924 38.6749C234.849 38.1146 234.895 37.5447 235.06 37.0038C235.225 36.4629 235.504 35.9637 235.879 35.5399C236.255 35.116 236.717 34.7775 237.234 34.5472C237.752 34.3169 238.313 34.2002 238.88 34.205C241.267 34.205 242.708 35.8314 242.708 38.518V39.1072H236.649V39.2018C236.623 39.5158 236.662 39.8318 236.765 40.1296C236.868 40.4275 237.033 40.7005 237.248 40.9313C237.463 41.162 237.724 41.3454 238.015 41.4697C238.305 41.5939 238.618 41.6563 238.934 41.6528C239.339 41.7013 239.749 41.6286 240.113 41.4439C240.476 41.2592 240.777 40.9709 240.975 40.6156L242.605 40.6157ZM236.649 37.8584H240.983C241.004 37.5713 240.965 37.2829 240.868 37.0117C240.771 36.7406 240.618 36.4926 240.419 36.2839C240.22 36.0752 239.979 35.9103 239.713 35.7997C239.446 35.6892 239.159 35.6355 238.871 35.6421C238.578 35.6384 238.287 35.6933 238.016 35.8034C237.745 35.9134 237.498 36.0766 237.291 36.2831C237.084 36.4897 236.921 36.7355 236.81 37.006C236.7 37.2766 236.645 37.5664 236.649 37.8584H236.649Z" fill="white"/>
</svg>
