<svg width="32" height="32" viewBox="0 0 32 32" fill="none" xmlns="http://www.w3.org/2000/svg">
<g id="Iconly/Light/Home">
<g id="Home">
<path id="Home (Stroke)" fill-rule="evenodd" clip-rule="evenodd" d="M12.7301 2.79656C14.631 1.28982 17.3305 1.28982 19.2315 2.79656L19.2338 2.79841L27.9998 9.7893C29.0332 10.5828 29.6487 11.8018 29.6666 13.1032L29.6668 13.117L29.6667 24.7489C29.6667 27.8425 27.1363 30.3332 24.0361 30.3332H21.4707L21.4475 30.3329C20.0219 30.2998 18.8671 29.1431 18.8674 27.7077C18.8674 27.7076 18.8674 27.7078 18.8674 27.7077V23.6061C18.8674 23.1228 18.4689 22.714 17.9561 22.714H14.112C13.603 22.7188 13.2096 23.1259 13.2096 23.606V27.695C13.2096 27.7935 13.1954 27.8886 13.1689 27.9785C13.0263 29.3096 11.8908 30.3332 10.5293 30.3332H7.96389C4.86373 30.3332 2.33334 27.8425 2.33334 24.7489V13.1198C2.34622 11.8159 2.96287 10.5936 4.0003 9.80186L12.7301 2.79656ZM11.2096 27.695V23.6061C11.2096 23.6061 11.2096 23.6061 11.2096 23.6061C11.2096 22.007 12.5106 20.7246 14.1014 20.714L14.108 20.7139L17.9561 20.714C19.5545 20.714 20.8674 21.9993 20.8674 23.6061V27.7077C20.8673 28.0355 21.1317 28.3203 21.4849 28.3332H24.0361C26.0507 28.3332 27.6667 26.719 27.6667 24.7489V13.1244C27.6554 12.4399 27.3299 11.7942 26.777 11.372L26.7605 11.359L17.9891 4.36392C17.9888 4.36363 17.9884 4.36335 17.9881 4.36306C16.8157 3.43461 15.1473 3.43432 13.9746 4.36219L5.24191 11.3698L5.21998 11.3869C4.66637 11.8064 4.34148 12.4516 4.33334 13.135V24.7489C4.33334 26.719 5.94929 28.3332 7.96389 28.3332H10.5293C10.9004 28.3332 11.184 28.038 11.184 27.695H11.2096Z" fill="#212121"/>
</g>
</g>
</svg>
