<svg width="32" height="32" viewBox="0 0 32 32" fill="none" xmlns="http://www.w3.org/2000/svg">
<g id="Iconly/Light/Edit">
<g id="Edit">
<path id="Stroke 1 (Stroke)" fill-rule="evenodd" clip-rule="evenodd" d="M17.3299 27.2568C17.3299 26.7046 17.7776 26.2568 18.3299 26.2568H28C28.5523 26.2568 29 26.7046 29 27.2568C29 27.8091 28.5523 28.2568 28 28.2568H18.3299C17.7776 28.2568 17.3299 27.8091 17.3299 27.2568Z" fill="#212121"/>
<path id="Union" fill-rule="evenodd" clip-rule="evenodd" d="M16.6466 5.52141C17.4561 4.49587 18.9062 4.3002 20.2409 5.35714L22.1815 6.89199L22.1875 6.89662C22.8233 7.39168 23.2088 8.01422 23.3358 8.61798L23.3378 8.62741C23.4791 9.26793 23.3374 9.89802 22.8771 10.4819L22.8748 10.4848L22.2688 11.2596L15.9631 6.39765C16.191 6.1056 16.4188 5.81352 16.6466 5.52141ZM14.7326 7.97433C12.7509 10.5124 10.767 13.0491 8.78343 15.5853L8.77923 15.5907C7.53543 17.181 6.29175 18.7712 5.04881 20.3615L5.03926 20.3738C4.70503 20.7877 4.57795 21.3371 4.69742 21.8939L5.65399 26.0411L9.88733 25.9968L9.88919 25.9968C10.4297 25.9882 10.931 25.7477 11.2779 25.3099L11.2793 25.3081L21.0365 12.8349L14.7326 7.97433ZM15.0885 4.31611C16.6885 2.28535 19.4308 2.20807 21.473 3.82489L23.4103 5.35712C24.3626 6.09963 25.0347 7.10554 25.2689 8.21301C25.5417 9.45607 25.2331 10.6742 24.4346 11.688L24.4334 11.6894L12.837 26.5138L12.8339 26.5178C12.1167 27.425 11.0526 27.9396 9.91728 27.9567L9.91274 27.9567L5.28812 28.005C4.57256 28.0037 3.96842 27.5155 3.81076 26.8368L2.76729 22.3125C2.52879 21.2156 2.76673 20.0571 3.49187 19.1548C4.73562 17.5635 5.9797 15.9728 7.22367 14.3822C9.84594 11.0293 12.4684 7.67626 15.0855 4.31999L15.0885 4.31611Z" fill="#212121"/>
</g>
</g>
</svg>
