<svg width="32" height="36" viewBox="0 0 32 36" fill="none" xmlns="http://www.w3.org/2000/svg">
<path d="M16.5626 12.3437C16.5265 12.3516 16.4892 12.3516 16.4532 12.3437C16.4219 12.3291 16.3938 12.3085 16.3706 12.2831C16.3473 12.2576 16.3294 12.2278 16.3177 12.1953C16.3061 12.1628 16.3011 12.1284 16.3028 12.0939C16.3046 12.0595 16.3132 12.0258 16.3282 11.9947L17.7501 8.96344C17.7805 8.90124 17.8339 8.85336 17.8991 8.83001C17.9643 8.80666 18.036 8.80969 18.099 8.83844C18.1303 8.85297 18.1584 8.87357 18.1816 8.89903C18.2049 8.9245 18.2228 8.95433 18.2345 8.98679C18.2461 9.01926 18.2511 9.05371 18.2494 9.08814C18.2476 9.12258 18.2389 9.15632 18.224 9.1874L16.7969 12.2187C16.7736 12.2594 16.7392 12.2927 16.6977 12.3149C16.6563 12.337 16.6094 12.3469 16.5626 12.3437Z" fill="#4C4639"/>
<path d="M17.948 19.4899C17.8719 19.4905 17.7968 19.4727 17.7292 19.4378C17.6042 19.3791 17.5077 19.2731 17.4608 19.1432C17.4139 19.0133 17.4205 18.8701 17.4792 18.7451L22.5782 7.90656C22.7544 7.53226 22.775 7.10333 22.6355 6.71385C22.5658 6.52041 22.4586 6.34263 22.3201 6.19069C22.1815 6.03875 22.0144 5.91565 21.8282 5.82844C21.4539 5.65219 21.0249 5.63159 20.6355 5.77115C20.442 5.84083 20.2642 5.94802 20.1123 6.08655C19.9604 6.22508 19.8373 6.39224 19.75 6.57844L14.4271 17.8857C14.3668 18.0081 14.2609 18.102 14.1321 18.1471C14.0034 18.1922 13.862 18.185 13.7385 18.127C13.615 18.069 13.5192 17.9648 13.4717 17.8369C13.4242 17.709 13.4287 17.5676 13.4844 17.443L18.8073 6.13573C18.9527 5.82366 19.1584 5.5435 19.4127 5.31144C19.667 5.07939 19.9647 4.90006 20.2888 4.78382C20.6128 4.66758 20.9566 4.61673 21.3004 4.63422C21.6442 4.65172 21.9812 4.7372 22.2917 4.88573C22.9167 5.17936 23.3995 5.70918 23.6339 6.35868C23.8683 7.00819 23.8351 7.7242 23.5417 8.34927L18.4219 19.193C18.3793 19.2825 18.3121 19.3579 18.2282 19.4105C18.1442 19.4631 18.047 19.4906 17.948 19.4899Z" fill="#4C4639"/>
<path d="M21.276 22.203C21.2006 22.2034 21.126 22.1874 21.0573 22.1561C20.9323 22.0974 20.8358 21.9914 20.7889 21.8615C20.742 21.7316 20.7486 21.5884 20.8073 21.4634L22.3698 18.1613C22.4568 17.9739 22.5057 17.771 22.5138 17.5645C22.5218 17.3579 22.4888 17.1519 22.4167 16.9582C22.347 16.7648 22.2398 16.587 22.1013 16.435C21.9627 16.2831 21.7956 16.16 21.6094 16.0728C21.2351 15.8965 20.8062 15.8759 20.4167 16.0155C20.2232 16.0852 20.0454 16.1924 19.8935 16.3309C19.7416 16.4694 19.6185 16.6366 19.5313 16.8228L18.4219 19.177C18.3616 19.2994 18.2557 19.3932 18.1269 19.4383C17.9981 19.4834 17.8568 19.4762 17.7333 19.4182C17.6098 19.3602 17.514 19.2561 17.4664 19.1282C17.4189 19.0003 17.4235 18.8588 17.4792 18.7342L18.5885 16.3801C18.7126 16.0397 18.9064 15.729 19.1574 15.4678C19.4084 15.2066 19.7111 15.0006 20.0462 14.8631C20.3813 14.7255 20.7414 14.6594 21.1036 14.6689C21.4657 14.6784 21.8219 14.7634 22.1493 14.9183C22.4767 15.0733 22.7682 15.2949 23.0051 15.5689C23.2421 15.843 23.4192 16.1634 23.5253 16.5098C23.6313 16.8562 23.6639 17.2209 23.621 17.5806C23.5781 17.9403 23.4606 18.2871 23.276 18.5988L21.7708 21.9061C21.7268 21.9989 21.6563 22.0765 21.5683 22.1293C21.4803 22.1822 21.3786 22.2078 21.276 22.203Z" fill="#4C4639"/>
<path d="M25.7136 22.568C25.6359 22.5687 25.5591 22.5508 25.4896 22.5159C25.3646 22.4572 25.2681 22.3512 25.2212 22.2213C25.1743 22.0914 25.181 21.9482 25.2396 21.8232L25.6823 20.8805C25.7721 20.696 25.8239 20.4954 25.8347 20.2905C25.8454 20.0856 25.8149 19.8807 25.7448 19.6878C25.6392 19.3972 25.4497 19.1444 25.2003 18.9615C24.9509 18.7786 24.6529 18.6738 24.3439 18.6604C24.035 18.6471 23.729 18.7257 23.4647 18.8863C23.2004 19.0469 22.9898 19.2824 22.8594 19.5628L21.7709 21.9066C21.7106 22.029 21.6047 22.1228 21.4759 22.1679C21.3471 22.213 21.2058 22.2058 21.0823 22.1478C20.9588 22.0898 20.863 21.9857 20.8154 21.8578C20.7679 21.7299 20.7725 21.5884 20.8282 21.4639L21.9375 19.1097C22.1568 18.6448 22.5087 18.2552 22.9489 17.9899C23.3891 17.7246 23.898 17.5955 24.4115 17.6189C24.9249 17.6423 25.42 17.8171 25.8343 18.1213C26.2486 18.4255 26.5636 18.8455 26.7396 19.3284C26.856 19.6507 26.9077 19.9929 26.8916 20.3352C26.8755 20.6775 26.792 21.0132 26.6459 21.3232L26.2032 22.2659C26.1603 22.3588 26.0909 22.437 26.0039 22.4907C25.9168 22.5444 25.8158 22.5713 25.7136 22.568Z" fill="#4C4639"/>
<path d="M29.4843 24.3386C29.4072 24.3386 29.331 24.3226 29.2604 24.2917C29.1354 24.233 29.0388 24.127 28.9919 23.9971C28.9451 23.8672 28.9517 23.724 29.0104 23.599C29.0983 23.4129 29.1487 23.2113 29.1585 23.0057C29.1684 22.8002 29.1375 22.5947 29.0677 22.4011C28.9281 22.0113 28.6397 21.6929 28.2656 21.5157C27.8866 21.3422 27.455 21.3235 27.0625 21.4636C26.6747 21.6043 26.3583 21.8926 26.1822 22.2657C26.154 22.3288 26.1134 22.3858 26.0629 22.4331C26.0124 22.4804 25.953 22.5172 25.8881 22.5414C25.8232 22.5655 25.7542 22.5764 25.685 22.5735C25.6159 22.5706 25.548 22.554 25.4854 22.5246C25.4227 22.4951 25.3665 22.4535 25.3202 22.4021C25.2738 22.3508 25.2381 22.2907 25.2152 22.2253C25.1923 22.16 25.1827 22.0908 25.1869 22.0217C25.191 21.9526 25.2089 21.885 25.2395 21.8229C25.3636 21.4826 25.5574 21.1719 25.8083 20.9107C26.0593 20.6495 26.3621 20.4435 26.6972 20.3059C27.0323 20.1684 27.3924 20.1022 27.7546 20.1117C28.1167 20.1213 28.4729 20.2062 28.8003 20.3612C29.1277 20.5162 29.4192 20.7378 29.6561 21.0118C29.8931 21.2858 30.0702 21.6063 30.1762 21.9527C30.2823 22.2991 30.3149 22.6638 30.272 23.0235C30.2291 23.3832 30.1116 23.73 29.927 24.0417C29.8868 24.1265 29.8245 24.1988 29.7465 24.2511C29.6686 24.3033 29.578 24.3336 29.4843 24.3386Z" fill="#4C4639"/>
<path d="M16.5626 12.3437C16.5265 12.3516 16.4892 12.3516 16.4532 12.3437C16.4219 12.3291 16.3938 12.3085 16.3706 12.2831C16.3473 12.2576 16.3294 12.2278 16.3177 12.1953C16.3061 12.1628 16.3011 12.1284 16.3028 12.0939C16.3046 12.0595 16.3132 12.0258 16.3282 11.9947L17.7501 8.96344C17.7805 8.90124 17.8339 8.85336 17.8991 8.83001C17.9643 8.80666 18.036 8.80969 18.099 8.83844C18.1303 8.85297 18.1584 8.87357 18.1816 8.89903C18.2049 8.9245 18.2228 8.95433 18.2345 8.98679C18.2461 9.01926 18.2511 9.05371 18.2494 9.08814C18.2476 9.12258 18.2389 9.15632 18.224 9.1874L16.7969 12.2187C16.7736 12.2594 16.7392 12.2927 16.6977 12.3149C16.6563 12.337 16.6094 12.3469 16.5626 12.3437Z" fill="#4C4639"/>
<path d="M24.8229 24.4528C24.7469 24.4531 24.6719 24.4352 24.6041 24.4007C24.4881 24.3385 24.3999 24.2346 24.3574 24.1099C24.3148 23.9852 24.3211 23.8491 24.375 23.7289L25.4843 21.3747C25.5126 21.3115 25.5531 21.2546 25.6036 21.2072C25.6541 21.1599 25.7136 21.1231 25.7785 21.099C25.8433 21.0749 25.9124 21.064 25.9815 21.0669C26.0507 21.0697 26.1186 21.0864 26.1812 21.1158C26.2439 21.1452 26.3 21.1868 26.3464 21.2382C26.3928 21.2896 26.4285 21.3497 26.4514 21.415C26.4743 21.4803 26.4839 21.5496 26.4797 21.6187C26.4755 21.6878 26.4576 21.7553 26.427 21.8174L25.3177 24.1716C25.2714 24.2614 25.1999 24.3358 25.1121 24.3858C25.0242 24.4357 24.9237 24.459 24.8229 24.4528Z" fill="#4C4639"/>
<path d="M18.3177 35.417C16.8622 35.4154 15.4251 35.0917 14.1094 34.4691C12.7183 33.8195 11.4699 32.9003 10.4364 31.7649C9.40291 30.6295 8.60491 29.3004 8.08857 27.8545L4.71878 18.4795C4.57922 18.09 4.59982 17.6611 4.77607 17.2868C4.86447 17.0996 4.98918 16.9319 5.14297 16.7933C5.29676 16.6547 5.47655 16.548 5.67191 16.4795C6.5796 16.16 7.57682 16.2123 8.44613 16.625C9.31544 17.0377 9.98634 17.7773 10.3125 18.6826L11.4323 21.8076L13.9011 16.5524C13.9293 16.4892 13.9699 16.4323 14.0204 16.385C14.0709 16.3376 14.1303 16.3009 14.1952 16.2767C14.2601 16.2526 14.3291 16.2417 14.3983 16.2446C14.4674 16.2475 14.5353 16.2641 14.598 16.2935C14.6606 16.323 14.7168 16.3646 14.7632 16.416C14.8095 16.4673 14.8452 16.5274 14.8681 16.5928C14.891 16.6581 14.9006 16.7273 14.8965 16.7964C14.8923 16.8655 14.8744 16.9331 14.8438 16.9951L12.3959 22.2347C12.3075 22.4211 12.1657 22.577 11.9886 22.6827C11.8115 22.7884 11.607 22.8391 11.4011 22.8285C11.1972 22.8221 10.9997 22.756 10.833 22.6385C10.6664 22.5209 10.5379 22.357 10.4636 22.167L9.34378 19.042C9.10863 18.3955 8.62718 17.8682 8.00457 17.5754C7.38197 17.2827 6.66881 17.2482 6.02086 17.4795C5.95495 17.5022 5.89426 17.5378 5.84237 17.5843C5.79048 17.6308 5.74845 17.6873 5.71878 17.7504C5.66669 17.8772 5.66669 18.0194 5.71878 18.1462L9.09378 27.5212C9.56173 28.8331 10.285 30.0393 11.2219 31.0701C12.1588 32.1008 13.2907 32.9357 14.5521 33.5264C16.6754 34.525 19.1083 34.64 21.3164 33.8461C23.5244 33.0521 25.327 31.4142 26.3282 29.292L28.9948 23.6306C29.0231 23.5674 29.0636 23.5104 29.1141 23.4631C29.1646 23.4158 29.2241 23.379 29.2889 23.3549C29.3538 23.3308 29.4229 23.3198 29.492 23.3227C29.5612 23.3256 29.6291 23.3422 29.6917 23.3717C29.7544 23.4011 29.8105 23.4427 29.8569 23.4941C29.9033 23.5455 29.939 23.6056 29.9619 23.6709C29.9847 23.7362 29.9944 23.8054 29.9902 23.8745C29.986 23.9436 29.9681 24.0112 29.9375 24.0733L27.2761 29.7347C26.4737 31.4326 25.2059 32.8678 23.6201 33.8737C22.0343 34.8795 20.1956 35.4147 18.3177 35.417Z" fill="#4C4639"/>
<path d="M18.9688 4.57259C18.8307 4.57259 18.6982 4.51772 18.6005 4.42004C18.5028 4.32237 18.448 4.18989 18.448 4.05176V1.62467H16.0417C15.9036 1.62467 15.7711 1.5698 15.6734 1.47213C15.5757 1.37445 15.5209 1.24197 15.5209 1.10384C15.5209 0.965708 15.5757 0.833231 15.6734 0.735556C15.7711 0.637881 15.9036 0.583008 16.0417 0.583008H18.9844C19.1226 0.583008 19.255 0.637881 19.3527 0.735556C19.4504 0.833231 19.5052 0.965708 19.5052 1.10384V4.05176C19.5053 4.12149 19.4913 4.19052 19.4642 4.25475C19.437 4.31898 19.3972 4.3771 19.3472 4.42568C19.2972 4.47425 19.2379 4.51228 19.1729 4.53752C19.1079 4.56276 19.0385 4.57468 18.9688 4.57259Z" fill="#EDC23A"/>
<path d="M3.7865 19.6927H0.838582C0.700449 19.6927 0.567973 19.6378 0.470298 19.5402C0.372623 19.4425 0.317749 19.31 0.317749 19.1719V16.224C0.317749 16.0858 0.372623 15.9533 0.470298 15.8557C0.567973 15.758 0.700449 15.7031 0.838582 15.7031C0.976716 15.7031 1.10919 15.758 1.20687 15.8557C1.30454 15.9533 1.35942 16.0858 1.35942 16.224V18.651H3.7865C3.92463 18.651 4.05711 18.7059 4.15478 18.8036C4.25246 18.9013 4.30733 19.0337 4.30733 19.1719C4.30733 19.31 4.25246 19.4425 4.15478 19.5402C4.05711 19.6378 3.92463 19.6927 3.7865 19.6927Z" fill="#EDC23A"/>
<path d="M0.994842 19.6041C0.892901 19.6027 0.793622 19.5713 0.709313 19.514C0.625004 19.4567 0.559371 19.3759 0.520554 19.2816C0.481736 19.1873 0.471439 19.0838 0.49094 18.9837C0.510441 18.8836 0.558882 18.7915 0.630258 18.7187L7.01047 12.3333C7.05888 12.2844 7.11649 12.2457 7.17996 12.2193C7.24343 12.1928 7.3115 12.1792 7.38026 12.1792C7.44901 12.1792 7.51709 12.1928 7.58056 12.2193C7.64403 12.2457 7.70163 12.2844 7.75005 12.3333C7.84706 12.4308 7.9015 12.5629 7.9015 12.7004C7.9015 12.838 7.84706 12.97 7.75005 13.0676L1.36463 19.4531C1.31597 19.5013 1.25825 19.5395 1.19479 19.5654C1.13134 19.5914 1.06339 19.6045 0.994842 19.6041Z" fill="#EDC23A"/>
<path d="M12.5886 8.01571C12.4851 8.01631 12.3838 7.98609 12.2976 7.92891C12.2114 7.87172 12.1442 7.79015 12.1045 7.69461C12.0648 7.59907 12.0545 7.49387 12.0749 7.39244C12.0952 7.29101 12.1453 7.19794 12.2188 7.12509L16.3854 2.95842L16.4115 2.92717L18.6042 0.734463C18.7018 0.637457 18.8338 0.583008 18.9714 0.583008C19.109 0.583008 19.241 0.637457 19.3386 0.734463C19.3874 0.782881 19.4261 0.840486 19.4526 0.903954C19.479 0.967422 19.4926 1.0355 19.4926 1.10425C19.4926 1.17301 19.479 1.24109 19.4526 1.30455C19.4261 1.36802 19.3874 1.42563 19.3386 1.47405L12.9584 7.85946C12.9101 7.90868 12.8526 7.94783 12.7891 7.97465C12.7256 8.00147 12.6575 8.01543 12.5886 8.01571Z" fill="#EDC23A"/>
<path d="M12.4583 13.3125H7.24996C7.11183 13.3125 6.97935 13.2576 6.88167 13.16C6.784 13.0623 6.72913 12.9298 6.72913 12.7917V7.58333C6.72913 7.4452 6.784 7.31272 6.88167 7.21505C6.97935 7.11737 7.11183 7.0625 7.24996 7.0625H12.4583C12.5964 7.0625 12.7289 7.11737 12.8266 7.21505C12.9243 7.31272 12.9791 7.4452 12.9791 7.58333V12.7917C12.9791 12.9298 12.9243 13.0623 12.8266 13.16C12.7289 13.2576 12.5964 13.3125 12.4583 13.3125ZM7.77079 12.2708H11.9375V8.10417H7.77079V12.2708Z" fill="#EDC23A"/>
</svg>
