<svg width="32" height="32" viewBox="0 0 32 32" fill="none" xmlns="http://www.w3.org/2000/svg">
<g id="Iconly/Light/Image">
<g id="Image">
<path id="Stroke 1 (Stroke)" fill-rule="evenodd" clip-rule="evenodd" d="M4.75374 4.88202C3.69063 6.02154 3.04762 7.68764 3.04762 9.75116V22.1717C3.04762 24.2369 3.68778 25.9032 4.74871 27.0424C5.80109 28.1723 7.35251 28.8765 9.37143 28.8765H22.5524C24.5716 28.8765 26.1274 28.1721 27.1839 27.0411C28.2484 25.9014 28.8914 24.2352 28.8914 22.1717V9.75116C28.8914 7.68767 28.2485 6.02194 27.184 4.88263C26.1276 3.75202 24.5717 3.04792 22.5524 3.04792H9.37143C7.36079 3.04792 5.80867 3.75127 4.75374 4.88202ZM3.08244 3.32278C4.61418 1.68095 6.7954 0.762207 9.37143 0.762207H22.5524C25.1349 0.762207 27.32 1.6802 28.8541 3.32216C30.3801 4.95542 31.1771 7.21275 31.1771 9.75116V22.1717C31.1771 24.7101 30.3801 26.9678 28.8542 28.6014C27.3202 30.2437 25.1351 31.1622 22.5524 31.1622H9.37143C6.78844 31.1622 4.60652 30.2435 3.07605 28.6001C1.55412 26.966 0.761902 24.7085 0.761902 22.1717V9.75116C0.761902 7.21277 1.55889 4.95583 3.08244 3.32278Z" fill="#212121"/>
<path id="Stroke 3" d="M5.33333 22.8572L8.09028 20.2939C8.89942 19.436 10.248 19.3949 11.1074 20.2025C11.1333 20.2284 12.5352 21.6531 12.5352 21.6531C13.3809 22.5141 14.763 22.5278 15.624 21.6836C15.6804 21.6288 19.1806 17.3834 19.1806 17.3834C20.0827 16.2878 21.7025 16.1309 22.7996 17.0345C22.8728 17.0954 26.1794 20.4889 26.1794 20.4889" stroke="#212121" stroke-width="1.5" stroke-linecap="round" stroke-linejoin="round"/>
<path id="Stroke 5 (Stroke)" fill-rule="evenodd" clip-rule="evenodd" d="M10.7554 10.1016C9.91026 10.1019 9.22605 10.7863 9.22605 11.6315C9.22605 12.4769 9.91057 13.1614 10.756 13.1614C11.6013 13.1614 12.2859 12.4769 12.2859 11.6315C12.2859 10.7874 11.6025 10.1028 10.7554 10.1016ZM6.94034 11.6315C6.94034 9.52378 8.6482 7.81592 10.756 7.81592H10.7571C12.8629 7.81809 14.5716 9.52271 14.5716 11.6315C14.5716 13.7393 12.8637 15.4472 10.756 15.4472C8.6482 15.4472 6.94034 13.7393 6.94034 11.6315Z" fill="#212121"/>
</g>
</g>
</svg>
