<svg width="32" height="32" viewBox="0 0 32 32" fill="none" xmlns="http://www.w3.org/2000/svg">
<g id="Iconly/Light/Category">
<g id="Category">
<path id="Union" fill-rule="evenodd" clip-rule="evenodd" d="M5.00001 8.66667C5.00001 7.77306 5.00397 7.11237 5.07034 6.5859C5.13573 6.06723 5.24902 5.80569 5.3758 5.64848C5.49137 5.50518 5.70845 5.33708 6.22769 5.20694C6.76281 5.07281 7.5363 5 8.66668 5C9.79705 5 10.5705 5.07281 11.1057 5.20694C11.6249 5.33708 11.842 5.50518 11.9575 5.64848C12.0843 5.80569 12.1976 6.06723 12.263 6.5859C12.3294 7.11237 12.3333 7.77306 12.3333 8.66667C12.3333 9.56382 12.3327 10.2248 12.2695 10.7541C12.2073 11.2755 12.0968 11.5348 11.9737 11.6891C11.8626 11.8284 11.6502 11.9959 11.1286 12.1262C10.5909 12.2604 9.81087 12.3333 8.66668 12.3333C7.52248 12.3333 6.74242 12.2604 6.20479 12.1262C5.68314 11.9959 5.47072 11.8284 5.35962 11.6891C5.23654 11.5348 5.12602 11.2755 5.06381 10.7541C5.00068 10.2248 5.00001 9.56382 5.00001 8.66667ZM8.66668 3C7.48246 3 6.51532 3.07298 5.74145 3.26694C4.9517 3.46488 4.29144 3.80714 3.81899 4.39297C3.35775 4.96489 3.17235 5.65126 3.08605 6.33573C3.00074 7.01241 3.00001 7.81013 3.00001 8.66667L3 8.74196C2.99993 9.56656 2.99987 10.3369 3.07789 10.991C3.15921 11.6726 3.33758 12.3613 3.79599 12.9361C4.26637 13.5259 4.92804 13.8688 5.72027 14.0666C6.49652 14.2604 7.47015 14.3333 8.66668 14.3333C9.8632 14.3333 10.8368 14.2604 11.6131 14.0666C12.4053 13.8688 13.067 13.5259 13.5374 12.9361C13.9958 12.3613 14.1741 11.6726 14.2555 10.991C14.3335 10.3369 14.3334 9.56656 14.3333 8.74196L14.3333 8.66667C14.3333 7.81013 14.3326 7.01241 14.2473 6.33573C14.161 5.65126 13.9756 4.96489 13.5144 4.39297C13.0419 3.80714 12.3816 3.46488 11.5919 3.26694C10.818 3.07298 9.85089 3 8.66668 3ZM19.6667 8.66667C19.6667 7.77306 19.6706 7.11237 19.737 6.5859C19.8024 6.06723 19.9157 5.80569 20.0425 5.64848C20.158 5.50518 20.3751 5.33708 20.8944 5.20694C21.4295 5.07281 22.203 5 23.3333 5C24.4637 5 25.2372 5.07281 25.7723 5.20694C26.2916 5.33708 26.5086 5.50518 26.6242 5.64848C26.751 5.80569 26.8643 6.06723 26.9297 6.5859C26.996 7.11237 27 7.77306 27 8.66667C27 9.56382 26.9993 10.2248 26.9362 10.7541C26.874 11.2755 26.7635 11.5348 26.6404 11.6891C26.5293 11.8284 26.3169 11.9959 25.7952 12.1262C25.2576 12.2604 24.4775 12.3333 23.3333 12.3333C22.1891 12.3333 21.4091 12.2604 20.8715 12.1262C20.3498 11.9959 20.1374 11.8284 20.0263 11.6891C19.9032 11.5348 19.7927 11.2755 19.7305 10.7541C19.6673 10.2248 19.6667 9.56382 19.6667 8.66667ZM23.3333 3C22.1491 3 21.182 3.07298 20.4081 3.26694C19.6184 3.46488 18.9581 3.80714 18.4857 4.39297C18.0244 4.96489 17.839 5.65126 17.7527 6.33573C17.6674 7.01241 17.6667 7.81013 17.6667 8.66667L17.6667 8.74196C17.6666 9.56656 17.6665 10.3369 17.7446 10.991C17.8259 11.6726 18.0043 12.3613 18.4627 12.9361C18.933 13.5259 19.5947 13.8688 20.3869 14.0666C21.1632 14.2604 22.1368 14.3333 23.3333 14.3333C24.5299 14.3333 25.5035 14.2604 26.2798 14.0666C27.072 13.8688 27.7336 13.5259 28.204 12.9361C28.6624 12.3613 28.8408 11.6726 28.9221 10.991C29.0002 10.3369 29.0001 9.56656 29 8.74196L29 8.66667C29 7.81013 28.9993 7.01241 28.914 6.33573C28.8277 5.65126 28.6423 4.96489 28.181 4.39297C27.7086 3.80714 27.0483 3.46488 26.2586 3.26694C25.4847 3.07298 24.5176 3 23.3333 3ZM5.07034 21.2526C5.00397 21.779 5.00001 22.4397 5.00001 23.3333C5.00001 24.2305 5.00068 24.8915 5.06381 25.4207C5.12602 25.9422 5.23654 26.2014 5.35962 26.3558C5.47072 26.4951 5.68314 26.6626 6.20479 26.7929C6.74242 26.9271 7.52248 27 8.66668 27C9.81087 27 10.5909 26.9271 11.1286 26.7929C11.6502 26.6626 11.8626 26.4951 11.9737 26.3558C12.0968 26.2014 12.2073 25.9422 12.2695 25.4207C12.3327 24.8915 12.3333 24.2305 12.3333 23.3333C12.3333 22.4397 12.3294 21.779 12.263 21.2526C12.1976 20.7339 12.0843 20.4724 11.9575 20.3152C11.842 20.1718 11.6249 20.0037 11.1057 19.8736C10.5705 19.7395 9.79705 19.6667 8.66668 19.6667C7.5363 19.6667 6.76281 19.7395 6.22769 19.8736C5.70845 20.0037 5.49137 20.1718 5.3758 20.3152C5.24902 20.4724 5.13573 20.7339 5.07034 21.2526ZM5.74145 17.9336C6.51532 17.7396 7.48246 17.6667 8.66668 17.6667C9.85089 17.6667 10.818 17.7396 11.5919 17.9336C12.3816 18.1316 13.0419 18.4738 13.5144 19.0596C13.9756 19.6316 14.161 20.3179 14.2473 21.0024C14.3326 21.6791 14.3333 22.4768 14.3333 23.3333L14.3333 23.4086C14.3334 24.2332 14.3335 25.0036 14.2555 25.6576C14.1741 26.3393 13.9958 27.028 13.5374 27.6028C13.067 28.1926 12.4053 28.5354 11.6131 28.7333C10.8368 28.9271 9.8632 29 8.66668 29C7.47015 29 6.49652 28.9271 5.72027 28.7333C4.92804 28.5354 4.26637 28.1926 3.79599 27.6028C3.33758 27.028 3.15921 26.3393 3.07789 25.6576C2.99987 25.0036 2.99993 24.2332 3 23.4086L3.00001 23.3333C3.00001 22.4768 3.00074 21.6791 3.08605 21.0024C3.17235 20.3179 3.35775 19.6316 3.81899 19.0596C4.29144 18.4738 4.9517 18.1316 5.74145 17.9336ZM19.6667 23.3333C19.6667 22.4397 19.6706 21.779 19.737 21.2526C19.8024 20.7339 19.9157 20.4724 20.0425 20.3152C20.158 20.1718 20.3751 20.0037 20.8944 19.8736C21.4295 19.7395 22.203 19.6667 23.3333 19.6667C24.4637 19.6667 25.2372 19.7395 25.7723 19.8736C26.2916 20.0037 26.5086 20.1718 26.6242 20.3152C26.751 20.4724 26.8643 20.7339 26.9297 21.2526C26.996 21.779 27 22.4397 27 23.3333C27 24.2305 26.9993 24.8915 26.9362 25.4207C26.874 25.9422 26.7635 26.2014 26.6404 26.3558C26.5293 26.4951 26.3169 26.6626 25.7952 26.7929C25.2576 26.9271 24.4775 27 23.3333 27C22.1891 27 21.4091 26.9271 20.8715 26.7929C20.3498 26.6626 20.1374 26.4951 20.0263 26.3558C19.9032 26.2014 19.7927 25.9422 19.7305 25.4207C19.6673 24.8915 19.6667 24.2305 19.6667 23.3333ZM23.3333 17.6667C22.1491 17.6667 21.182 17.7396 20.4081 17.9336C19.6184 18.1316 18.9581 18.4738 18.4857 19.0596C18.0244 19.6316 17.839 20.3179 17.7527 21.0024C17.6674 21.6791 17.6667 22.4768 17.6667 23.3333L17.6667 23.4086C17.6666 24.2332 17.6665 25.0036 17.7446 25.6576C17.8259 26.3393 18.0043 27.028 18.4627 27.6028C18.933 28.1926 19.5947 28.5354 20.3869 28.7333C21.1632 28.9271 22.1368 29 23.3333 29C24.5299 29 25.5035 28.9271 26.2798 28.7333C27.072 28.5354 27.7336 28.1926 28.204 27.6028C28.6624 27.028 28.8408 26.3393 28.9221 25.6576C29.0002 25.0036 29.0001 24.2332 29 23.4086L29 23.3333C29 22.4768 28.9993 21.6791 28.914 21.0024C28.8277 20.3179 28.6423 19.6316 28.181 19.0596C27.7086 18.4738 27.0483 18.1316 26.2586 17.9336C25.4847 17.7396 24.5176 17.6667 23.3333 17.6667Z" fill="#212121"/>
</g>
</g>
</svg>
