<svg width="50" height="51" viewBox="0 0 50 51" fill="none" xmlns="http://www.w3.org/2000/svg">
<g id="Iconly/Light/Filter">
<path id="&#233;&#135;&#141;&#230;&#150;&#176;&#231;&#183;&#168;&#232;&#188;&#175;" d="M0.624 48.844V49.588H11.388V48.844H0.624ZM0.684 41.056V41.8H11.316V41.056H0.684ZM1.512 47.092V47.812H10.62V47.092H1.512ZM5.496 39.844V49.204H6.396V39.844H5.496ZM9.672 38.992C7.776 39.34 4.38 39.556 1.584 39.628C1.668 39.82 1.776 40.132 1.776 40.348C4.584 40.288 8.004 40.084 10.152 39.688L9.672 38.992ZM2.772 44.68H9.264V45.604H2.772V44.68ZM2.772 43.168H9.264V44.08H2.772V43.168ZM1.896 42.52V46.252H10.176V42.52H1.896ZM19.544 42.976V43.816H24.008V42.976H19.544ZM13.232 40.18V40.948H18.524V40.18H13.232ZM13.1 44.944V45.724H18.584V44.944H13.1ZM13.064 42.928V43.696H18.668V42.928H13.064ZM21.776 43.312V49.9H22.652V43.312H21.776ZM15.452 38.968V40.576H16.328V38.968H15.452ZM15.452 43.552V49.948H16.328V43.552H15.452ZM19.112 39.904V44.104C19.112 45.808 18.944 47.884 17.408 49.396C17.624 49.516 17.948 49.816 18.056 50.02C19.748 48.352 19.964 45.916 19.964 44.116V40.408C20.132 40.384 20.204 40.336 20.216 40.24L19.112 39.904ZM23.132 39.064C22.256 39.496 20.672 39.916 19.328 40.204C19.436 40.384 19.556 40.696 19.604 40.888C21.044 40.636 22.724 40.228 23.852 39.724L23.132 39.064ZM16.244 45.952L15.752 46.36C16.196 46.732 17.324 47.788 17.708 48.232L18.236 47.56C17.936 47.284 16.628 46.216 16.244 45.952ZM13.952 41.164C14.192 41.716 14.384 42.436 14.42 42.904L15.176 42.7C15.116 42.244 14.912 41.536 14.66 41.008L13.952 41.164ZM17.024 40.984C16.892 41.488 16.64 42.232 16.424 42.712L17.144 42.88C17.36 42.436 17.612 41.764 17.84 41.164L17.024 40.984ZM15.464 45.34C14.888 46.516 13.796 47.812 12.824 48.448C13.028 48.592 13.292 48.88 13.436 49.084C14.396 48.34 15.5 46.924 16.112 45.592L15.464 45.34ZM32.38 45.076V49.852H32.992V45.076H32.38ZM33.916 45.076V49.852H34.54V45.076H33.916ZM29.692 39.652V40.444H36.304V39.652H29.692ZM31.144 46.936V47.62H35.932V46.936H31.144ZM30.16 41.236V43.876C30.16 45.496 30.04 47.704 28.876 49.288C29.056 49.384 29.404 49.636 29.536 49.792C30.772 48.112 30.976 45.616 30.976 43.888V41.236H30.16ZM30.52 41.236V41.98H35.14V43.276H30.52V44.02H36.004V41.236H30.52ZM30.808 44.836V49.972H31.48V45.544H35.98V44.836H30.808ZM35.5 44.836V49.096C35.5 49.204 35.476 49.228 35.392 49.228C35.296 49.228 35.056 49.228 34.756 49.216C34.852 49.432 34.972 49.744 34.996 49.96C35.452 49.96 35.764 49.936 35.98 49.828C36.208 49.684 36.256 49.468 36.256 49.108V44.836H35.5ZM27.352 38.932C27.052 39.724 26.5 40.9 26.08 41.596L26.68 41.86C27.124 41.188 27.688 40.108 28.12 39.22L27.352 38.932ZM28.624 40.3C28 41.56 26.92 43.348 26.068 44.416L26.608 44.704C27.472 43.672 28.576 41.968 29.368 40.636L28.624 40.3ZM25.432 41.416C26.068 42.016 26.788 42.868 27.088 43.444L27.592 42.784C27.28 42.244 26.548 41.428 25.912 40.84L25.432 41.416ZM28.168 43.012C28.612 43.828 29.02 44.908 29.152 45.58L29.824 45.292C29.704 44.62 29.26 43.564 28.804 42.772L28.168 43.012ZM25.336 44.236L25.432 45.04C26.476 44.968 27.844 44.884 29.2 44.8V44.032C27.76 44.116 26.332 44.188 25.336 44.236ZM28.396 45.928C28.672 46.624 28.9 47.536 28.96 48.136L29.632 47.932C29.572 47.344 29.32 46.432 29.032 45.748L28.396 45.928ZM26.056 45.784C25.924 46.828 25.696 47.908 25.312 48.64C25.492 48.712 25.84 48.868 25.984 48.976C26.356 48.208 26.644 47.044 26.8 45.916L26.056 45.784ZM27.268 44.584V49.96H28.048V44.584H27.268ZM47.508 42.808V49.96H48.348V42.808H47.508ZM44.664 39.988H47.508V41.2H44.664V39.988ZM43.812 39.304V41.884H48.396V39.304H43.812ZM43.116 42.58V43.324H49.044V42.58H43.116ZM44.28 44.356V45.04H47.928V44.356H44.28ZM44.28 46.084V46.768H47.928V46.084H44.28ZM43.872 42.772V48.364L44.712 48.268V42.772H43.872ZM42.804 48.1L42.948 48.904C44.52 48.784 46.848 48.604 49.056 48.424V47.656C46.74 47.836 44.328 48.004 42.804 48.1ZM38.088 40.228V41.032H43.056V40.228H38.088ZM37.968 47.068V47.872H43.2V47.068H37.968ZM40.188 38.932V42.208H41.004V38.932H40.188ZM40.26 42.256V45.748H40.188V49.984H41.004V45.748H40.92V42.256H40.26ZM39.108 44.32H42.132V45.424H39.108V44.32ZM39.108 42.592H42.132V43.672H39.108V42.592ZM38.412 41.92V46.096H42.84V41.92H38.412Z" fill="#1F1E1C"/>
<g id="rotate-ccw">
<path id="Shape" d="M11.5505 4.8291V13.3551H19.9202" stroke="#1F1E1C" stroke-width="2" stroke-linecap="round" stroke-linejoin="round"/>
<path id="Shape_2" d="M15.0518 20.4604C16.9099 25.8328 22.0319 29.3058 27.6143 28.9785C33.1967 28.6512 37.8937 24.6025 39.1344 19.0484C40.3752 13.4944 37.8605 7.77387 32.9669 5.01808C28.0732 2.26229 21.9803 3.13554 18.023 7.15986L11.5505 13.3554" stroke="#1F1E1C" stroke-width="2" stroke-linecap="round" stroke-linejoin="round"/>
</g>
</g>
</svg>
