<svg width="32" height="32" viewBox="0 0 32 32" fill="none" xmlns="http://www.w3.org/2000/svg">
<g id="Iconly/Light/Add User">
<g id="Add User">
<path id="Stroke 1 (Stroke)" fill-rule="evenodd" clip-rule="evenodd" d="M6.1776 20.1021C8.07366 19.4664 10.585 19.2749 13.1688 19.2749C15.7684 19.2749 18.2808 19.474 20.1746 20.118C21.1267 20.4418 21.9955 20.9018 22.6348 21.5719C23.2973 22.2661 23.6715 23.144 23.6715 24.1816C23.6715 25.2212 23.294 26.0987 22.6278 26.7903C21.9854 27.4573 21.1136 27.9129 20.1606 28.2325C18.2647 28.8684 15.7534 29.0602 13.1688 29.0602C10.57 29.0602 8.05756 28.8615 6.16362 28.2177C5.2114 27.894 4.34251 27.434 3.70299 26.7639C3.04041 26.0696 2.66614 25.1915 2.66614 24.1536C2.66614 23.1136 3.04367 22.2359 3.70999 21.5442C4.35259 20.8772 5.22451 20.4216 6.1776 20.1021ZM5.15037 22.9318C4.83578 23.2584 4.66614 23.6415 4.66614 24.1536C4.66614 24.6677 4.8357 25.0539 5.14987 25.3831C5.48709 25.7365 6.02787 26.0591 6.80732 26.3241C8.37671 26.8576 10.6156 27.0602 13.1688 27.0602C15.7109 27.0602 17.9509 26.8641 19.5247 26.3363C20.3065 26.0741 20.8491 25.754 21.1874 25.4028C21.5019 25.0763 21.6715 24.6932 21.6715 24.1816C21.6715 23.6678 21.502 23.2818 21.1879 22.9526C20.8507 22.5992 20.31 22.2765 19.5307 22.0115C17.9615 21.4778 15.7225 21.2749 13.1688 21.2749C10.6273 21.2749 8.38728 21.4707 6.81334 21.9984C6.03143 22.2605 5.48869 22.5806 5.15037 22.9318Z" fill="#212121"/>
<path id="Stroke 3 (Stroke)" fill-rule="evenodd" clip-rule="evenodd" d="M6.07948 9.75538C6.08044 5.84006 9.25431 2.6665 13.1688 2.6665C17.0851 2.6665 20.2595 5.84089 20.2595 9.75717C20.2595 13.6735 17.0851 16.8478 13.1688 16.8478H13.1275L13.1239 16.8478C9.2189 16.8339 6.06647 13.6589 6.07948 9.75538ZM13.1688 4.6665C10.3586 4.6665 8.07948 6.94531 8.07948 9.75717V9.76075H8.07947C8.06945 12.5599 10.3291 14.8369 13.1294 14.8478H13.1688C15.9805 14.8478 18.2595 12.5689 18.2595 9.75717C18.2595 6.94545 15.9805 4.6665 13.1688 4.6665Z" fill="#212121"/>
<path id="Stroke 5 (Stroke)" fill-rule="evenodd" clip-rule="evenodd" d="M25.6049 10.5586C26.1572 10.5586 26.6049 11.0063 26.6049 11.5586V16.9053C26.6049 17.4575 26.1572 17.9053 25.6049 17.9053C25.0526 17.9053 24.6049 17.4575 24.6049 16.9053V11.5586C24.6049 11.0063 25.0526 10.5586 25.6049 10.5586Z" fill="#212121"/>
<path id="Stroke 7 (Stroke)" fill-rule="evenodd" clip-rule="evenodd" d="M21.8795 14.2319C21.8795 13.6796 22.3272 13.2319 22.8795 13.2319H28.3328C28.8851 13.2319 29.3328 13.6796 29.3328 14.2319C29.3328 14.7842 28.8851 15.2319 28.3328 15.2319H22.8795C22.3272 15.2319 21.8795 14.7842 21.8795 14.2319Z" fill="#212121"/>
</g>
</g>
</svg>
